{"glyphs":{":":{"x_min":0,"x_max":260,"ha":260,"o":"m 57 353 q 57 366 65 384 q 74 402 92 413 q 109 423 130 423 q 157 423 177 402 q 198 381 198 352 q 198 319 178 300 q 158 281 123 281 q 119 281 117 282 q 88 296 83 300 q 71 310 64 325 q 57 340 57 353 z m 127 132 q 163 132 186 104 q 199 89 199 64 q 199 39 193 29 q 181 10 162 -1 q 149 -8 124 -8 q 97 -8 77 12 q 58 32 58 62 q 58 83 67 99 q 77 114 97 126 q 106 132 127 132 z"},"$":{"x_min":0,"x_max":469,"ha":469,"o":"m 209 46 l 210 269 q 202 272 191 277 q 111 310 79 348 q 47 387 47 440 q 47 500 86 542 q 125 584 193 593 q 205 595 212 596 l 212 635 l 256 635 q 257 622 257 617 l 257 605 q 257 600 258 595 q 265 594 276 593 q 343 585 385 547 q 416 518 416 480 q 416 462 404 449 q 393 437 376 437 q 360 437 350 447 q 339 458 333 487 q 328 516 317 527 q 294 549 257 552 q 256 537 256 464 q 256 390 257 377 l 331 343 q 366 325 389 301 q 413 278 425 249 q 437 221 437 186 q 437 117 392 66 q 348 15 273 2 q 263 1 255 -1 l 254 -94 l 210 -94 l 209 -1 q 130 6 85 48 q 40 90 40 133 q 40 153 51 165 q 62 177 81 177 q 99 177 112 165 q 125 153 133 119 q 141 85 160 68 q 178 50 209 46 z m 210 396 q 212 437 212 534 q 212 537 211 550 q 176 546 156 526 q 135 505 135 477 q 135 447 158 426 q 181 405 210 396 z m 255 47 q 292 50 319 79 q 345 107 345 144 q 345 183 318 210 q 292 238 257 248 q 255 229 255 223 l 256 182 z"},"?":{"x_min":0,"x_max":417,"ha":417,"o":"m 161 191 l 148 191 l 125 190 q 122 190 112 191 q 112 194 101 293 q 95 341 94 349 l 93 354 q 93 362 103 369 q 112 375 139 375 l 192 375 q 266 375 293 397 q 321 419 321 458 q 321 499 291 528 q 262 558 225 558 q 207 558 168 544 q 130 530 106 530 q 79 530 63 544 q 48 558 48 583 q 48 614 68 632 q 88 650 133 650 q 239 650 307 584 q 375 518 375 420 q 375 370 356 332 q 337 294 305 275 q 272 256 215 246 q 188 240 182 237 q 173 232 169 225 q 166 218 161 191 z m 141 130 q 172 130 192 110 q 212 90 212 60 q 212 31 191 11 q 171 -9 141 -9 q 112 -9 91 11 q 71 31 71 61 q 71 89 92 110 q 113 130 141 130 z"},"<":{"x_min":0,"x_max":667,"ha":667,"o":"m 601 59 l 66 283 l 66 353 l 601 577 l 601 494 l 170 318 l 601 142 z"},"'":{"x_min":0,"x_max":281,"ha":281,"o":"m 153 353 l 129 353 l 78 539 q 68 574 68 604 q 68 635 89 656 q 110 677 140 677 q 170 677 192 657 q 213 636 213 606 q 213 584 201 540 z"},"=":{"x_min":0,"x_max":667,"ha":667,"o":"m 66 471 l 601 471 l 601 395 l 66 395 z m 66 241 l 601 241 l 601 164 l 66 164 z"},"a":{"x_min":0,"x_max":479,"ha":479,"o":"m 452 95 l 463 87 q 467 84 468 79 l 469 77 q 457 33 438 17 q 419 0 391 0 q 362 0 341 16 q 320 32 303 72 q 282 35 244 16 q 206 -2 151 -2 q 100 -2 76 19 q 52 40 52 75 q 52 91 59 107 q 66 124 82 140 q 98 157 133 176 q 139 179 170 193 l 292 242 q 293 260 293 279 q 293 345 277 369 q 268 384 243 384 q 219 384 198 375 q 178 365 168 351 q 162 340 157 310 q 153 289 150 285 q 143 276 124 268 q 104 261 98 257 q 71 245 56 245 q 49 250 49 261 q 49 289 61 309 q 78 337 114 364 q 149 391 180 401 q 222 415 282 415 q 321 415 349 401 q 377 386 388 358 q 399 330 399 256 l 398 175 l 399 116 l 399 101 q 399 81 405 73 q 410 65 419 65 q 424 65 428 68 l 443 91 z m 292 208 q 264 199 229 177 q 194 155 180 133 q 170 117 170 94 q 170 73 183 59 q 196 45 212 45 q 240 45 259 61 q 285 82 289 94 q 293 107 293 165 q 293 187 292 208 z"},"L":{"x_min":0,"x_max":635,"ha":635,"o":"m 22 43 q 38 48 65 52 q 93 56 98 56 q 117 57 123 62 q 126 74 126 82 l 125 145 l 128 208 l 128 249 l 128 296 l 127 347 l 129 456 l 130 505 l 130 512 q 126 563 123 569 q 120 574 95 582 q 93 583 77 589 q 64 594 55 596 q 38 600 31 606 q 30 619 30 625 q 30 629 30 637 q 35 640 40 640 q 51 640 125 636 l 194 636 l 246 635 q 280 635 333 640 q 348 641 351 641 q 358 641 361 637 q 365 632 365 618 q 365 606 359 601 q 356 597 338 595 l 277 581 q 275 580 269 577 q 267 573 266 571 l 266 557 l 264 526 l 264 518 l 265 512 q 265 510 263 485 q 263 479 263 473 q 263 465 264 446 q 265 417 265 395 q 265 370 264 337 q 263 325 263 305 l 261 74 q 261 59 266 55 l 312 53 l 341 53 l 372 52 q 451 52 496 70 q 529 84 540 98 q 556 112 567 129 q 577 146 590 186 l 606 186 q 618 186 632 184 l 632 170 q 632 135 624 47 q 620 12 617 4 q 605 2 603 2 l 584 2 l 559 2 q 555 2 501 6 q 491 6 408 9 q 324 12 244 12 l 145 9 q 87 8 37 4 l 29 4 q 26 4 20 4 q 19 10 19 14 q 19 34 22 43 z"},"3":{"x_min":0,"x_max":469,"ha":469,"o":"m 164 297 q 149 315 140 326 q 229 391 258 431 q 278 457 278 487 q 278 519 255 542 q 233 564 204 564 q 145 564 96 492 l 65 508 q 88 560 111 585 q 134 611 176 629 q 208 643 255 643 q 319 643 354 611 q 388 579 388 530 q 388 492 364 457 q 340 422 279 381 l 290 381 q 355 381 396 331 q 438 280 438 221 q 438 170 414 116 q 391 61 329 24 q 267 -14 177 -14 q 89 -14 43 17 q 14 37 14 63 q 14 82 28 95 q 42 109 64 109 q 83 109 99 99 q 114 89 141 55 q 155 38 167 33 q 190 23 200 23 q 226 23 254 41 q 282 59 299 99 q 315 140 315 194 q 315 252 286 286 q 257 319 223 319 q 197 319 164 297 z"},";":{"x_min":0,"x_max":260,"ha":260,"o":"m 66 357 q 66 383 85 404 q 105 425 140 425 q 163 425 184 404 q 205 383 205 360 q 205 345 196 323 q 189 307 173 296 q 157 285 136 285 q 132 285 128 287 q 125 289 116 289 q 101 290 83 311 q 66 332 66 357 z m 50 -143 q 52 -137 63 -132 q 97 -116 117 -90 q 136 -65 136 -39 q 136 -25 129 -17 q 122 -9 85 11 q 48 31 48 68 q 48 97 68 116 q 88 135 124 135 q 162 135 193 99 q 225 64 225 9 q 225 -19 213 -52 q 202 -84 190 -99 q 171 -124 141 -148 q 139 -149 91 -175 q 84 -178 78 -178 q 70 -178 65 -173 q 60 -168 50 -143 z"},"J":{"x_min":0,"x_max":375,"ha":375,"o":"m 50 -125 q 69 -159 84 -168 q 93 -171 98 -171 q 109 -171 117 -160 q 128 -143 128 -105 l 128 -76 q 128 -50 130 -26 q 131 -12 131 -3 q 131 1 130 30 l 130 67 l 129 250 q 129 265 128 273 q 127 293 127 311 l 127 417 l 125 507 l 123 539 q 123 575 122 584 q 111 587 56 592 l 44 592 l 32 594 q 29 594 22 595 l 20 637 q 68 637 102 634 q 136 631 193 631 q 243 631 301 637 q 313 638 320 638 q 329 638 345 636 q 346 625 346 619 q 346 613 344 600 q 308 595 297 595 q 271 594 259 590 q 258 579 258 576 q 258 529 260 519 q 261 508 261 462 l 261 421 l 263 358 l 262 309 l 263 259 l 263 208 l 264 170 q 264 62 254 2 q 245 -58 225 -96 q 197 -150 174 -172 q 136 -208 99 -221 q 62 -235 26 -235 q -8 -235 -33 -211 q -58 -188 -58 -156 q -58 -130 -40 -113 q -22 -96 2 -96 q 25 -96 50 -125 z"},"V":{"x_min":0,"x_max":667,"ha":667,"o":"m -11 598 l -11 640 q 14 640 20 639 q 80 632 177 632 q 192 632 237 635 q 269 638 285 640 l 321 640 q 322 604 322 600 q 273 594 265 592 q 243 586 233 576 q 228 571 228 563 q 228 558 229 553 l 245 510 q 262 460 301 375 l 357 249 q 373 212 386 180 l 415 249 l 473 410 l 486 444 q 489 452 493 465 q 505 508 514 531 q 522 553 522 567 q 522 577 513 583 q 499 594 467 597 q 460 599 449 600 q 438 602 429 604 q 426 613 426 618 q 426 625 428 641 q 437 641 478 637 q 520 633 559 633 q 600 633 628 636 q 657 640 675 641 l 675 625 q 675 619 675 607 q 612 584 601 576 q 594 571 588 560 q 569 527 531 428 l 469 266 q 460 243 449 217 q 439 190 427 159 q 425 152 404 101 l 399 92 q 378 23 367 -3 q 348 -4 343 -4 q 333 -4 317 -3 q 312 11 306 26 q 301 42 265 132 l 172 339 l 117 473 q 75 563 71 570 q 62 582 52 587 q 42 593 10 596 z"},"\"":{"x_min":0,"x_max":552,"ha":552,"o":"m 406 352 l 382 352 l 333 540 q 321 582 321 607 q 321 635 343 656 q 364 677 395 677 q 429 677 448 654 q 466 631 466 608 q 466 591 453 540 z m 170 352 l 146 352 l 96 540 q 86 577 86 605 q 86 635 107 656 q 128 677 158 677 q 188 677 209 657 q 230 637 230 607 q 230 585 219 539 z"},"7":{"x_min":0,"x_max":469,"ha":469,"o":"m 51 627 q 70 627 112 628 l 231 626 l 333 627 l 391 627 l 411 628 q 417 628 429 627 q 431 609 431 597 q 431 583 411 529 q 396 491 385 455 q 374 419 368 404 q 354 369 346 343 q 338 323 328 294 l 304 227 q 298 209 281 165 l 242 56 q 237 45 237 40 q 237 32 247 24 q 258 17 258 9 q 258 0 250 -10 l 237 -10 l 200 -10 q 197 -9 183 -10 q 169 -11 161 -11 q 154 -11 141 -10 q 143 4 161 43 q 172 66 208 163 l 296 390 l 318 448 q 324 461 332 485 q 334 492 341 510 q 293 513 264 513 l 191 512 l 133 513 q 105 513 96 505 q 86 498 82 478 q 78 458 72 453 q 66 448 51 448 q 43 448 39 453 q 34 458 34 467 q 34 491 40 539 q 43 563 46 587 q 48 610 51 627 z"},"S":{"x_min":0,"x_max":510,"ha":510,"o":"m 413 621 q 417 604 421 571 q 427 521 427 493 q 427 484 425 474 l 420 472 l 385 475 l 379 476 q 358 540 336 563 q 299 602 249 602 q 201 602 173 577 q 145 552 145 515 q 145 483 173 455 q 200 426 289 399 q 319 391 361 371 q 403 352 425 329 q 455 298 466 270 q 477 242 477 200 q 477 154 459 110 q 450 86 430 65 q 415 51 384 31 q 354 11 321 2 q 288 -6 236 -6 q 202 -6 154 3 l 96 21 q 71 27 65 33 q 62 35 61 42 l 61 47 q 61 53 58 114 q 57 146 57 159 l 57 178 l 102 179 q 125 125 132 113 q 147 88 166 73 q 184 58 209 49 q 235 40 265 40 q 291 40 323 51 q 354 62 374 88 q 393 113 393 143 q 393 179 359 209 q 339 229 249 260 q 159 292 125 317 q 90 342 70 384 q 50 425 50 464 q 50 542 105 596 q 161 650 270 650 q 293 650 339 642 q 367 637 413 621 z"},"}":{"x_min":0,"x_max":396,"ha":396,"o":"m 44 -202 l 44 -180 q 93 -170 116 -145 q 140 -120 140 -88 q 140 -56 128 -7 q 116 42 116 78 q 116 111 136 146 q 155 180 193 205 q 219 221 275 237 q 215 256 188 274 q 151 299 133 333 q 115 367 115 397 q 115 426 127 475 q 139 524 139 560 q 139 595 117 620 q 95 645 44 655 l 44 677 l 62 678 q 148 678 205 619 q 246 575 246 522 q 246 489 231 431 q 220 387 220 353 q 220 314 244 287 q 268 260 315 252 l 315 223 q 268 215 244 187 q 220 158 220 118 q 220 84 230 43 q 245 -15 245 -45 q 245 -78 226 -110 q 208 -143 179 -163 q 150 -184 116 -193 q 89 -200 44 -202 z"},"Z":{"x_min":0,"x_max":667,"ha":667,"o":"m 23 5 q 22 22 22 44 q 54 89 158 225 l 188 263 q 196 272 211 293 q 233 326 270 371 q 306 416 363 495 q 387 527 401 546 q 422 573 431 585 l 418 585 l 376 586 q 321 586 244 579 q 167 572 140 562 q 120 555 106 542 q 78 516 67 500 q 63 494 60 488 q 41 486 39 486 q 34 486 26 488 q 29 507 69 658 l 99 660 q 114 625 120 622 q 130 614 156 614 q 161 614 165 615 l 168 615 q 208 618 357 625 q 452 629 505 629 l 542 628 l 604 628 q 605 618 605 608 q 604 602 571 559 q 549 529 536 510 l 513 478 l 512 476 l 375 297 l 271 157 q 227 100 196 56 q 227 51 272 51 l 306 51 l 327 50 q 386 50 422 56 q 459 62 484 75 q 509 88 530 108 q 551 129 586 182 q 602 184 608 184 l 621 184 l 612 79 l 612 75 q 612 65 605 2 l 409 8 q 384 8 370 8 l 313 8 l 258 9 l 248 9 l 114 5 q 96 3 83 3 q 71 3 57 4 q 38 5 23 5 z"},"x":{"x_min":0,"x_max":500,"ha":500,"o":"m 9 25 q 34 34 51 43 q 62 49 70 56 q 78 63 107 91 l 197 180 l 203 187 q 200 189 145 244 l 139 253 q 117 275 105 289 l 96 297 q 62 336 49 347 q 45 351 24 361 q 21 363 13 367 q 10 377 10 382 q 10 394 13 398 q 15 400 19 400 q 27 399 30 399 l 44 400 l 52 399 l 77 397 q 114 397 170 401 l 224 401 q 225 394 225 389 q 225 382 221 372 q 200 365 191 358 l 189 353 q 189 349 195 343 l 273 259 l 342 341 q 351 354 351 359 l 351 362 q 339 370 308 375 q 306 385 306 393 l 306 401 l 315 401 q 324 401 346 398 q 379 398 402 396 q 409 396 422 398 q 440 401 444 401 l 453 400 l 474 400 l 474 393 q 474 385 471 375 q 463 371 449 367 q 417 358 404 350 q 400 347 374 320 q 322 267 297 236 l 385 135 q 437 72 451 57 q 463 46 483 33 q 486 26 486 18 l 486 3 q 475 3 467 4 q 403 8 375 8 q 370 8 354 6 l 338 6 q 303 2 280 2 l 274 3 q 273 12 273 17 q 273 20 273 26 q 286 34 299 40 q 307 44 315 50 q 314 61 311 66 q 305 74 289 91 q 283 95 254 131 q 242 145 227 159 q 168 105 154 85 q 145 72 145 62 q 145 53 150 46 q 156 40 169 35 q 179 32 185 29 l 191 26 q 192 21 192 19 q 192 14 189 4 q 182 4 168 6 q 146 8 120 8 q 83 8 46 5 q 22 4 10 3 q 9 12 9 17 z"},")":{"x_min":0,"x_max":354,"ha":354,"o":"m 12 623 q 16 629 22 635 q 28 640 35 647 q 86 617 122 581 q 188 515 223 455 q 258 395 272 350 q 295 276 295 204 q 295 137 279 76 q 263 15 230 -42 q 196 -98 140 -154 q 83 -210 42 -237 l 14 -210 q 54 -171 83 -129 q 111 -86 129 -42 q 147 1 158 65 q 170 128 170 210 q 170 267 162 321 q 155 375 138 438 q 135 448 126 464 q 100 531 35 598 q 19 614 12 623 z"},"&":{"x_min":0,"x_max":802,"ha":802,"o":"m 220 344 q 186 384 175 398 q 165 412 158 433 q 151 454 151 475 q 151 519 181 555 q 210 591 267 606 q 275 608 280 610 q 291 613 330 613 q 399 613 439 577 q 480 542 480 496 q 480 469 468 444 q 459 426 429 405 q 398 385 379 378 q 373 376 370 372 q 379 359 413 328 q 425 315 445 292 l 501 223 q 509 212 517 204 q 545 232 563 265 q 577 290 577 302 q 577 312 569 322 q 561 332 541 339 l 542 370 q 565 375 572 375 q 605 379 651 382 l 687 384 l 711 384 q 717 384 743 387 q 742 380 742 373 q 742 365 740 358 l 739 349 q 704 333 688 322 q 672 311 632 268 q 607 243 547 166 q 548 159 559 149 l 571 135 q 597 106 620 91 q 643 77 662 77 q 674 77 682 81 q 698 90 718 111 q 731 125 739 125 q 749 125 755 119 q 762 112 762 103 q 762 84 743 54 q 725 24 688 3 q 663 -10 620 -10 q 582 -10 550 4 q 508 23 458 69 q 360 -11 244 -11 q 143 -11 94 34 q 45 78 45 147 q 45 189 65 227 q 85 264 124 291 q 162 318 195 332 q 213 339 220 344 z m 334 407 q 364 420 379 443 q 389 459 389 491 q 389 507 379 538 q 376 549 359 559 q 342 569 319 569 q 294 569 276 554 q 257 539 257 512 q 257 493 271 473 q 288 446 334 407 z m 421 109 q 417 116 411 123 q 405 129 400 136 l 343 206 q 298 259 252 309 q 217 294 196 268 q 175 243 175 209 q 175 188 183 168 q 199 134 217 115 q 234 95 262 80 q 289 65 319 65 q 375 65 421 109 z"},"_":{"x_min":0,"x_max":500,"ha":500,"o":"m -6 -75 l 506 -75 l 506 -125 l -6 -125 z"},"v":{"x_min":0,"x_max":458,"ha":458,"o":"m -4 401 l 7 401 l 108 399 l 139 398 l 203 401 l 214 401 q 217 392 217 387 q 217 381 215 369 q 206 367 194 366 q 170 362 164 358 q 160 355 160 352 q 160 343 166 331 q 169 326 180 299 q 184 288 196 264 q 232 188 248 146 q 257 122 263 110 q 297 188 337 310 q 347 342 349 361 q 320 366 295 366 l 289 366 l 281 367 q 280 375 280 383 q 280 395 284 401 l 301 402 l 344 402 l 368 402 q 390 400 414 400 l 453 402 q 458 402 466 401 q 467 393 467 387 q 467 382 466 374 q 417 362 397 352 q 394 345 393 342 l 391 338 q 372 279 329 183 l 276 56 q 266 31 261 22 q 253 5 247 -7 l 208 -7 q 188 26 168 73 l 102 221 q 77 280 46 346 q 42 354 40 356 q 0 367 -6 373 q -7 378 -7 386 q -7 395 -4 401 z"},"O":{"x_min":0,"x_max":792,"ha":792,"o":"m 44 327 q 44 388 67 449 q 84 493 115 529 q 146 566 192 594 q 239 623 287 635 q 335 648 395 648 q 497 648 571 610 q 646 572 689 507 q 745 422 745 330 q 745 191 651 93 q 557 -6 389 -6 q 348 -6 312 0 q 284 3 264 10 q 227 22 222 24 q 169 55 137 86 q 104 118 82 158 q 70 181 54 239 q 44 277 44 327 z m 376 600 q 334 600 301 580 q 269 560 252 536 q 224 496 212 448 q 201 399 201 331 q 201 289 204 271 q 205 265 207 250 q 211 214 217 198 q 238 136 247 121 q 262 96 291 72 q 305 59 333 49 q 361 38 389 38 q 441 38 487 63 q 532 87 559 146 q 586 206 586 300 q 586 339 581 406 l 579 416 q 577 419 574 436 q 556 516 505 558 q 454 600 376 600 z"},"(":{"x_min":0,"x_max":354,"ha":354,"o":"m 323 647 q 338 634 351 621 q 307 576 287 546 q 250 491 234 449 q 217 408 205 344 q 193 281 193 190 q 193 119 205 52 q 217 -14 227 -35 q 251 -91 275 -126 q 299 -161 350 -211 q 340 -224 327 -237 q 278 -213 211 -142 q 144 -70 106 18 q 68 105 68 204 q 68 314 106 397 q 144 481 212 552 q 280 622 323 647 z"},"C":{"x_min":0,"x_max":677,"ha":677,"o":"m 600 625 q 606 610 626 542 q 635 510 635 475 l 591 475 q 544 542 494 571 q 444 600 383 600 q 307 600 261 541 q 198 460 198 317 q 198 234 208 199 q 226 142 253 106 q 273 79 307 62 q 350 41 398 41 q 452 41 502 74 q 552 107 598 174 q 616 177 646 178 q 644 159 639 139 q 638 131 628 77 l 624 62 l 617 40 q 587 17 533 5 q 479 -6 400 -6 q 340 -6 287 5 q 233 16 195 41 q 140 76 108 117 q 76 158 61 206 q 45 254 45 314 q 45 460 141 555 q 237 649 386 649 q 447 649 500 643 q 554 637 600 625 z"},"W":{"x_min":0,"x_max":896,"ha":896,"o":"m 1 600 l -1 630 q 5 633 8 633 q 49 630 89 629 q 106 628 111 628 q 128 628 152 630 l 215 633 q 219 631 220 627 l 216 605 q 207 599 198 595 q 178 584 178 577 q 178 571 183 561 q 186 555 191 541 q 199 517 238 425 l 364 130 q 389 176 442 286 l 370 458 q 350 506 335 538 q 331 548 327 557 q 324 562 319 572 q 314 581 304 587 q 294 593 255 603 l 257 632 q 273 632 300 630 q 340 627 351 627 l 419 628 l 504 633 q 506 633 511 633 l 511 616 l 511 610 q 511 607 509 603 q 501 600 483 598 q 470 597 465 593 q 460 588 460 583 q 460 568 470 547 q 475 538 482 519 q 506 456 520 427 l 554 498 q 577 547 584 570 q 586 575 586 578 l 586 581 q 580 587 575 590 q 563 595 534 603 q 533 612 533 617 q 533 622 534 633 q 550 633 625 630 q 670 629 682 629 q 692 629 700 629 q 708 629 717 629 l 718 625 l 716 604 l 715 601 q 663 586 652 579 q 642 572 633 557 q 608 514 542 377 l 544 373 l 576 300 l 629 175 q 637 156 641 147 l 702 309 l 788 528 l 802 569 q 803 573 803 577 l 801 585 q 785 590 774 593 q 764 596 756 601 q 754 617 754 621 q 754 625 758 631 l 766 632 l 839 629 l 887 632 l 897 630 q 899 622 899 615 q 899 606 896 601 q 893 597 886 595 q 866 585 858 576 q 853 570 843 543 q 801 429 756 323 q 710 217 621 -14 l 572 -15 q 567 3 561 15 q 547 47 544 55 l 490 180 q 477 211 469 227 q 467 229 465 233 q 464 231 413 135 q 363 40 339 -14 l 290 -14 q 272 40 221 151 l 63 520 q 38 576 27 587 q 23 591 13 595 q 9 597 1 600 z"},"A":{"x_min":0,"x_max":656,"ha":656,"o":"m -13 3 l -12 37 q -2 40 21 44 q 59 51 67 57 q 75 63 86 85 l 185 344 l 301 647 q 317 647 332 647 l 354 647 l 358 638 l 443 437 q 472 373 495 313 q 518 252 534 214 q 544 191 561 146 q 570 121 588 83 q 598 62 603 59 q 611 52 631 49 q 651 47 674 38 q 676 22 676 14 q 676 11 676 3 q 640 3 596 7 q 553 10 518 10 q 479 10 462 9 l 379 5 l 355 4 q 355 21 357 37 l 411 48 q 436 55 439 58 q 444 63 444 69 q 444 76 442 83 l 422 130 l 384 226 l 197 227 q 187 203 155 112 q 146 86 146 77 q 146 64 152 59 q 164 49 195 45 q 200 44 230 40 q 230 22 230 16 q 230 10 229 4 q 199 4 85 13 l 65 9 q 29 3 -4 3 z m 217 278 q 331 276 352 276 l 364 277 q 349 320 326 378 q 302 436 288 466 z"},"f":{"x_min":0,"x_max":302,"ha":302,"o":"m 27 2 l 26 30 q 34 34 61 42 q 88 49 91 53 q 97 58 97 68 l 97 79 q 99 124 99 129 q 99 134 98 142 l 98 147 l 98 154 l 98 158 l 95 242 l 95 336 l 94 345 q 85 345 68 346 l 37 346 q 34 347 29 348 q 28 361 28 369 q 28 383 35 391 q 50 391 93 395 q 94 453 112 504 q 129 555 155 585 l 168 600 q 200 627 227 638 q 254 649 292 649 q 328 649 351 637 q 375 625 384 607 q 393 589 393 573 q 393 554 377 537 q 361 521 341 521 q 327 521 312 531 q 303 538 289 561 q 275 584 267 591 q 259 597 247 597 q 231 597 220 585 q 209 573 205 551 q 200 529 200 463 l 200 410 l 200 396 l 209 395 l 268 396 q 272 396 281 395 q 288 389 288 385 l 287 376 l 287 363 q 287 360 286 352 q 281 349 275 349 l 271 349 l 234 349 q 225 349 220 349 l 215 349 q 210 349 201 347 l 200 323 q 200 320 201 312 q 202 285 202 274 l 201 203 l 202 150 l 202 108 q 200 64 210 55 q 224 41 269 36 q 277 35 284 32 q 286 21 286 17 q 286 12 284 2 l 249 2 q 245 2 192 5 l 166 7 q 127 7 106 5 q 95 4 27 2 z"},"Q":{"x_min":0,"x_max":792,"ha":792,"o":"m 521 10 q 544 -4 555 -14 q 625 -70 681 -98 q 704 -110 750 -118 q 750 -138 750 -149 q 750 -159 750 -169 q 737 -171 723 -171 q 654 -171 606 -161 q 572 -153 513 -127 q 455 -102 359 -42 q 313 -13 278 2 q 202 35 152 78 q 103 121 73 181 q 44 242 44 314 q 44 405 87 485 q 131 565 228 615 q 293 648 394 648 q 473 648 527 629 q 581 610 620 578 q 660 545 687 506 q 713 467 729 420 q 744 373 744 321 q 744 261 724 208 q 704 154 673 115 q 641 77 598 47 q 572 30 521 10 z m 398 36 q 434 36 480 58 q 525 81 557 143 q 588 206 588 315 q 588 398 571 451 q 554 504 532 532 q 511 561 478 579 q 434 603 388 603 q 346 603 320 590 q 277 568 254 537 q 222 492 212 434 q 202 376 202 325 q 202 267 214 208 q 225 148 248 112 q 271 77 309 56 q 347 36 398 36 z"},"w":{"x_min":0,"x_max":708,"ha":708,"o":"m -5 399 l 3 400 l 11 400 q 15 400 45 397 q 75 394 100 394 q 120 394 155 397 q 190 400 198 400 q 204 400 216 399 q 217 390 217 384 q 217 379 215 373 q 208 371 198 369 q 176 365 168 360 q 166 359 164 354 q 168 339 172 328 l 220 218 q 244 164 261 134 q 271 112 274 104 q 320 186 344 258 l 322 305 q 308 335 293 360 q 285 362 274 365 q 256 369 241 374 l 241 401 q 277 400 291 399 q 312 397 356 397 q 377 397 409 398 q 440 399 447 399 l 471 399 l 469 372 q 464 371 445 369 q 426 367 411 363 q 436 302 443 288 l 449 277 l 501 163 l 520 124 l 539 166 q 562 217 566 229 q 581 265 583 271 q 606 319 606 342 q 606 349 596 355 q 593 357 560 368 q 536 371 528 374 l 530 399 q 538 400 542 400 q 546 400 587 397 q 627 394 634 394 q 652 394 690 397 q 707 399 718 399 l 718 385 q 718 381 717 370 q 669 355 657 347 q 654 345 651 337 l 577 169 q 558 129 512 17 q 506 2 502 -6 l 466 -6 l 382 180 l 374 199 q 370 208 364 217 l 360 209 l 301 88 q 288 60 277 39 q 265 18 256 -5 l 239 -5 l 213 -5 l 137 157 l 54 335 q 46 349 40 354 q 28 363 13 366 q -2 369 -6 372 q -6 381 -6 386 q -6 393 -5 399 z"},"-":{"x_min":0,"x_max":333,"ha":333,"o":"m 37 251 l 191 251 l 269 252 q 285 252 299 250 q 300 227 302 216 l 302 208 l 300 182 q 300 176 300 167 l 300 159 l 35 158 q 35 172 35 180 q 35 192 36 207 q 36 215 36 218 l 36 243 z"},"E":{"x_min":0,"x_max":708,"ha":708,"o":"m 20 635 q 48 634 68 631 q 107 625 158 625 q 175 625 248 628 q 357 633 445 633 l 533 634 q 563 634 621 626 q 630 617 630 600 l 630 500 l 631 479 q 631 477 630 471 l 610 470 q 606 470 594 471 q 589 480 582 500 l 562 534 q 551 556 531 579 q 519 583 500 583 q 495 583 470 585 q 425 589 373 589 q 313 589 266 587 q 265 575 265 491 l 266 409 l 266 348 q 278 346 287 346 q 374 346 411 350 q 448 353 457 359 q 466 365 473 380 q 477 391 490 452 l 496 453 l 524 452 q 526 409 526 386 q 526 335 526 320 q 525 306 525 297 q 525 284 526 255 q 528 226 528 212 l 528 201 l 493 201 q 491 209 486 233 q 476 279 468 290 q 462 299 449 303 q 439 307 376 307 q 303 307 266 303 q 265 290 265 286 q 265 228 267 189 l 266 84 q 266 65 279 59 q 299 48 402 48 q 470 48 517 59 q 550 66 575 91 q 608 124 630 183 q 645 185 655 185 q 660 185 671 184 q 669 172 668 164 l 666 149 l 647 57 l 639 1 q 607 0 588 0 q 561 0 442 4 q 359 8 241 8 q 183 8 97 3 l 77 3 l 18 1 l 18 35 q 27 37 55 40 q 105 46 125 56 q 130 70 130 91 q 130 100 130 120 l 130 135 l 129 319 l 129 374 l 127 452 l 127 507 l 123 568 q 123 570 122 578 q 117 583 107 584 q 102 585 93 587 q 65 593 39 594 q 30 595 18 596 z"},"s":{"x_min":0,"x_max":417,"ha":417,"o":"m 44 140 q 59 143 65 143 q 69 143 76 142 l 80 137 q 106 91 115 81 q 132 61 148 49 q 160 41 184 33 q 200 27 218 27 q 249 27 271 47 q 292 66 292 89 q 292 105 284 116 q 276 127 251 138 q 239 143 190 155 q 141 167 130 171 q 107 180 90 196 q 72 211 62 231 q 50 259 50 279 q 50 316 61 340 q 71 363 91 381 q 105 395 134 406 q 162 417 195 417 q 241 417 276 411 q 312 405 336 392 q 339 381 344 340 q 350 300 350 292 q 350 289 348 285 q 335 281 327 281 q 322 281 313 282 q 309 289 301 303 q 278 346 253 364 q 229 382 196 382 q 163 382 140 362 q 123 348 123 324 q 123 308 141 291 q 158 274 200 265 q 264 251 294 237 q 338 216 356 188 q 374 161 374 124 q 374 67 331 30 q 289 -8 207 -8 q 196 -8 150 -3 q 130 -1 102 6 q 95 8 66 21 q 61 23 59 28 q 57 32 52 68 q 44 128 44 140 z"},">":{"x_min":0,"x_max":667,"ha":667,"o":"m 66 577 l 601 353 l 601 283 l 66 59 l 66 142 l 497 317 l 66 493 z"},"l":{"x_min":0,"x_max":260,"ha":260,"o":"m 3 24 q 14 32 32 34 q 65 38 70 44 q 80 57 80 96 l 80 233 l 80 266 l 80 365 l 78 478 l 78 497 q 78 537 72 556 q 55 566 35 566 q 23 566 13 569 q 12 581 12 587 q 12 591 13 596 q 51 600 93 615 q 134 631 156 647 l 170 647 q 174 647 183 647 q 185 478 185 416 q 185 397 185 386 l 185 383 l 185 374 l 185 157 l 186 86 l 186 74 q 186 53 192 44 q 198 38 217 37 q 228 36 258 32 q 260 21 260 15 q 260 10 259 1 l 221 3 q 188 6 140 6 l 122 6 q 94 6 41 2 l 5 2 z"},"8":{"x_min":0,"x_max":469,"ha":469,"o":"m 166 305 q 108 334 82 378 q 55 422 55 456 q 55 485 65 520 q 74 555 97 581 q 121 607 158 624 q 195 642 236 642 q 313 642 362 598 q 410 554 410 489 q 410 457 389 423 q 369 389 347 377 l 311 356 q 311 354 338 339 q 364 325 397 284 q 420 255 427 235 q 434 215 434 184 q 434 137 425 114 q 420 100 403 74 q 386 48 374 38 q 349 17 304 0 q 275 -11 239 -11 q 197 -11 161 -2 q 134 4 116 18 q 87 39 75 55 q 63 71 54 95 q 42 127 42 159 q 42 211 84 254 q 110 282 166 305 z m 277 377 l 287 387 q 306 406 313 425 q 324 452 324 490 q 324 542 299 569 q 273 596 235 596 q 196 596 170 571 q 144 545 144 508 q 144 482 157 461 q 170 440 200 420 q 214 410 277 377 z m 200 282 q 192 282 168 254 q 136 217 136 162 q 136 102 166 69 q 197 35 240 35 q 286 35 312 61 q 338 87 338 132 q 338 168 321 194 q 304 220 254 251 q 205 282 200 282 z"},"\\":{"x_min":0,"x_max":552,"ha":552,"o":"m 59 696 l 140 696 l 494 -135 l 413 -135 z"},"e":{"x_min":0,"x_max":469,"ha":469,"o":"m 42 262 q 55 303 64 317 q 92 357 123 379 q 154 402 179 409 q 211 418 231 418 q 277 418 305 411 q 333 404 353 391 q 380 372 396 353 q 413 333 424 307 q 434 280 435 243 l 381 244 q 358 244 282 248 q 254 250 243 250 q 240 250 190 250 l 148 250 q 147 243 147 238 q 147 212 154 183 q 160 155 173 133 q 186 111 204 96 q 223 80 243 73 l 271 64 q 309 64 322 66 q 345 71 363 79 q 381 86 406 104 q 424 92 436 82 q 393 34 346 13 q 300 -8 243 -8 q 205 -8 180 -1 q 147 7 121 25 q 95 43 76 70 q 57 97 47 125 q 35 163 35 185 q 35 228 42 262 z m 326 283 q 325 310 315 335 q 305 360 283 374 q 262 388 240 388 q 207 388 181 359 q 154 330 151 281 l 262 280 q 273 280 292 282 q 307 283 312 283 q 317 283 326 283 z"},"b":{"x_min":0,"x_max":552,"ha":552,"o":"m 21 591 l 62 606 q 78 612 144 647 l 165 647 q 173 647 180 646 q 180 632 180 626 l 180 606 l 182 423 l 182 353 q 196 368 219 385 q 224 389 246 399 q 268 410 281 413 q 305 418 323 418 q 371 418 402 406 q 432 394 459 367 q 486 341 505 294 q 517 265 517 222 q 517 194 507 159 q 498 124 476 91 q 460 67 432 44 q 403 21 366 7 q 342 -2 283 -2 q 229 -2 161 38 q 144 49 136 53 q 126 39 114 19 q 102 -1 98 -8 l 73 -8 q 73 3 74 16 q 76 28 76 39 l 75 75 l 77 87 q 78 95 78 115 l 78 472 q 78 525 74 542 q 73 546 71 549 q 68 551 21 568 z m 183 324 l 183 248 q 183 121 189 96 q 195 71 221 53 q 248 35 277 35 q 298 35 320 43 q 341 52 353 63 q 370 79 378 97 q 391 125 395 149 q 399 181 399 200 q 399 240 383 280 q 366 319 337 338 q 307 357 272 357 q 251 357 222 345 q 192 333 183 324 z"},"%":{"x_min":0,"x_max":833,"ha":833,"o":"m 170 -13 q 277 144 604 652 l 610 654 l 654 652 l 659 652 l 226 -13 q 216 -13 211 -13 l 182 -11 z m 32 475 q 32 504 37 522 q 48 564 54 575 q 67 601 80 612 q 99 630 118 638 q 137 646 159 646 q 211 646 248 602 q 286 558 286 479 q 286 436 275 402 q 264 368 245 345 q 229 327 211 317 q 187 304 169 304 q 127 304 105 315 q 75 332 53 373 q 32 413 32 475 z m 117 489 q 118 455 118 442 q 119 368 125 357 l 140 337 q 147 332 156 332 q 169 332 180 343 q 191 353 196 388 q 201 422 201 459 l 200 492 l 200 527 q 200 582 186 603 q 176 618 160 618 q 146 618 135 607 q 125 597 120 565 q 118 553 117 489 z m 546 166 q 546 195 551 212 q 562 254 568 266 q 582 292 594 303 q 613 320 633 328 q 652 336 674 336 q 725 336 763 292 q 800 248 800 170 q 800 126 790 92 q 779 59 759 36 q 744 18 726 8 q 701 -5 683 -5 q 642 -5 620 6 q 589 22 568 63 q 546 104 546 166 z m 631 179 q 633 145 633 132 q 633 58 639 47 l 655 27 q 662 22 671 22 q 684 22 695 33 q 706 43 710 78 q 715 113 715 150 l 715 183 l 715 218 q 715 272 701 293 q 691 308 674 308 q 661 308 650 298 q 639 288 634 256 q 632 244 631 179 z"},"m":{"x_min":0,"x_max":844,"ha":844,"o":"m 23 35 q 27 37 34 38 q 62 40 80 48 q 83 49 84 54 q 84 59 86 143 l 86 171 l 87 222 l 86 274 l 86 286 q 86 309 76 320 q 65 331 21 343 l 21 363 q 30 366 43 369 q 88 378 117 395 q 140 408 162 435 l 188 435 l 188 427 l 190 388 l 189 370 l 190 361 q 237 397 268 409 q 299 421 339 421 q 377 421 413 404 q 449 388 473 349 q 508 382 531 396 q 547 405 575 412 q 604 419 628 419 q 696 419 736 378 q 775 337 775 266 l 775 188 q 775 165 774 106 l 774 68 q 774 59 780 49 q 799 41 812 39 q 822 37 831 32 q 832 23 833 17 l 833 7 q 819 5 813 5 q 810 5 790 7 q 770 9 740 9 q 666 9 623 4 q 619 17 619 24 l 620 31 q 626 34 662 48 q 668 54 669 59 q 671 71 671 111 l 669 249 q 668 284 664 306 q 659 329 649 342 q 640 355 624 363 q 607 372 590 372 q 562 372 534 356 q 506 341 484 310 l 483 295 l 484 233 l 483 182 l 483 133 l 483 89 q 483 57 489 51 q 499 42 537 38 l 552 33 q 556 21 556 15 q 556 12 554 3 l 540 4 l 521 4 l 510 4 q 476 8 438 8 l 386 9 q 367 9 320 5 l 312 6 l 311 35 q 326 40 364 42 q 366 43 370 44 q 375 51 376 55 q 379 65 379 95 l 378 194 l 379 220 q 379 296 374 314 q 367 338 345 353 q 324 368 293 368 q 254 368 225 349 q 195 330 191 315 q 190 310 190 307 l 191 302 l 191 297 q 191 292 188 283 l 190 143 l 190 70 q 190 66 191 57 l 194 50 q 208 45 217 43 q 235 40 245 35 q 246 26 246 23 q 246 17 242 5 q 234 4 231 4 q 226 4 182 9 l 129 9 q 91 9 37 4 l 22 4 q 21 12 21 22 q 21 27 23 35 z"},"#":{"x_min":0,"x_max":667,"ha":667,"o":"m 42 481 l 198 481 l 240 676 l 310 676 l 268 481 l 463 481 l 504 676 l 574 676 l 533 481 l 625 481 l 625 412 l 520 412 l 484 241 l 625 241 l 625 171 l 470 171 l 429 -22 l 359 -22 l 400 171 l 204 171 l 164 -22 l 93 -22 l 134 171 l 42 171 l 42 241 l 148 241 l 184 412 l 42 412 z m 254 412 l 218 242 l 414 242 l 450 412 z"},",":{"x_min":0,"x_max":260,"ha":260,"o":"m 47 -144 q 48 -140 50 -138 q 53 -136 67 -129 q 95 -115 114 -90 q 133 -64 133 -41 q 133 -27 127 -19 q 121 -11 92 4 q 64 20 55 33 q 45 46 45 68 q 45 96 66 115 q 86 134 120 134 q 159 134 190 99 q 222 64 222 12 q 222 -18 212 -49 q 202 -81 187 -101 q 172 -121 140 -147 q 133 -152 87 -176 q 81 -179 75 -179 q 67 -179 62 -174 q 56 -168 47 -144 z"},"n":{"x_min":0,"x_max":552,"ha":552,"o":"m 20 28 q 33 34 43 36 q 70 40 75 43 q 82 47 84 54 q 87 63 87 97 l 87 139 l 88 174 l 86 225 l 86 256 q 86 287 82 306 q 80 313 69 321 q 56 331 23 340 l 22 363 q 29 365 34 366 q 39 367 73 375 q 100 385 108 389 q 110 391 116 394 q 122 398 129 403 q 144 414 164 439 l 190 441 l 189 386 q 188 377 188 373 q 188 369 189 350 q 229 385 263 399 q 306 417 345 417 q 391 417 426 394 q 460 372 471 342 q 482 312 482 222 l 480 62 q 480 51 484 44 q 489 40 511 37 l 535 32 q 539 26 539 17 q 539 11 539 0 l 443 7 l 415 6 l 392 6 l 328 1 l 311 1 q 311 8 311 11 q 311 20 312 30 q 318 32 346 35 q 353 36 362 39 q 372 42 373 46 q 377 55 377 78 q 377 119 376 141 l 376 198 q 377 301 364 326 q 345 363 308 363 q 281 363 251 349 q 222 335 191 307 l 190 298 l 191 268 l 190 235 l 192 157 l 191 145 q 191 65 198 55 q 204 44 246 32 q 248 24 248 20 q 248 14 244 2 q 229 1 219 1 q 208 1 187 4 l 134 5 q 95 5 21 2 q 20 7 20 12 q 20 16 20 28 z"},"h":{"x_min":0,"x_max":552,"ha":552,"o":"m 19 34 q 26 36 62 40 q 78 42 82 46 q 86 54 86 81 l 86 116 l 88 152 l 88 192 l 88 202 l 88 227 l 89 235 l 91 412 l 91 426 q 91 517 86 538 q 83 551 72 558 q 61 565 21 572 l 21 582 q 21 589 21 600 l 62 609 q 75 612 86 615 q 113 621 155 639 q 162 644 168 646 l 195 645 l 194 353 q 238 388 275 402 q 312 417 351 417 q 389 417 416 404 q 444 390 459 370 q 474 351 480 322 q 485 303 485 249 l 485 218 l 485 149 l 483 49 q 485 45 487 43 q 493 41 516 37 q 529 34 537 32 q 541 25 541 21 l 540 17 q 539 11 539 0 l 528 0 q 521 0 499 2 q 458 6 430 6 q 412 6 382 4 q 360 3 327 3 q 322 3 317 4 l 317 16 l 316 22 q 316 26 319 33 q 330 39 345 40 q 360 42 373 44 q 375 53 375 56 l 378 127 l 378 247 q 378 300 372 319 q 366 337 348 349 q 329 361 303 361 q 272 361 243 347 q 214 333 193 313 l 193 228 q 193 157 192 122 q 191 101 191 96 q 191 62 195 49 q 197 43 206 39 q 224 37 236 37 q 248 37 255 35 q 256 22 256 18 q 256 11 254 1 l 200 3 q 169 6 145 6 l 77 2 l 29 3 q 24 10 19 27 z"},"z":{"x_min":0,"x_max":469,"ha":469,"o":"m 283 361 q 257 362 219 362 q 151 362 129 351 q 97 334 77 298 l 62 279 l 30 280 q 30 289 35 301 q 45 328 68 405 q 75 432 82 448 l 92 448 q 99 448 111 447 q 114 438 114 426 q 114 410 119 400 l 125 397 l 150 396 l 423 401 q 425 390 425 383 q 425 381 425 374 q 356 291 343 273 q 274 177 192 73 l 182 62 l 166 42 l 183 42 q 214 42 294 52 q 326 56 335 62 q 347 70 384 131 q 391 143 395 149 l 426 148 l 421 107 q 419 90 418 80 q 417 69 415 54 q 412 39 410 20 q 410 11 409 4 l 205 5 l 48 4 l 30 5 l 30 33 q 40 47 47 56 l 139 169 l 215 270 q 253 318 283 361 z"},"B":{"x_min":0,"x_max":677,"ha":677,"o":"m 36 -1 l 37 38 q 48 41 65 43 q 97 48 117 56 q 124 67 125 78 q 129 105 129 158 l 128 366 q 128 398 125 534 q 124 571 120 580 q 119 583 115 584 q 107 590 86 591 q 77 591 38 596 l 37 631 l 146 633 l 306 639 l 325 639 q 331 640 336 640 q 341 640 362 639 l 394 639 q 431 640 474 628 q 489 624 514 612 q 539 599 557 580 q 576 561 584 537 q 593 513 593 486 q 593 456 580 432 q 567 409 540 389 q 526 379 477 356 q 551 340 589 296 q 628 251 628 197 q 628 165 616 130 q 607 104 586 81 q 558 51 527 36 q 496 21 441 11 q 414 6 358 6 l 275 8 q 223 8 150 3 q 129 2 36 -1 z m 263 370 q 283 367 309 367 q 382 367 420 394 q 458 421 458 487 q 458 534 422 565 q 386 597 314 597 q 294 597 260 591 q 260 580 261 559 q 263 518 263 443 l 263 402 q 263 391 263 370 z m 269 59 q 301 45 328 45 q 384 45 419 62 q 454 79 470 109 q 486 140 486 185 q 486 232 469 260 q 444 299 410 313 q 375 326 306 326 q 275 326 263 322 l 263 262 l 263 189 l 264 77 q 265 69 269 59 z"},"K":{"x_min":0,"x_max":677,"ha":677,"o":"m 26 33 q 76 59 114 69 q 124 75 126 85 q 129 95 129 162 q 129 171 128 197 l 128 208 l 128 312 l 128 385 l 129 407 l 129 426 q 129 434 130 448 l 128 470 l 128 475 q 129 483 129 495 q 129 546 122 571 q 104 584 63 595 q 41 601 28 608 l 32 638 q 40 639 49 639 q 88 639 123 635 q 157 630 217 630 l 267 633 q 304 633 324 636 q 338 637 344 637 q 351 637 358 637 q 360 632 360 626 q 360 611 358 604 q 328 593 299 588 q 271 583 267 580 q 261 574 261 562 l 261 524 q 261 516 262 498 q 263 469 263 458 q 263 450 262 425 l 262 388 l 261 353 q 261 350 261 346 q 296 376 355 437 q 382 466 398 481 q 405 487 467 553 q 487 581 489 585 l 485 588 q 455 594 439 595 q 429 595 406 602 q 405 609 405 630 l 406 637 l 427 637 q 443 637 469 635 q 494 632 508 632 l 625 634 q 653 637 687 640 l 687 601 q 678 599 654 594 q 596 576 575 565 q 555 555 534 539 q 514 522 458 471 q 384 402 369 386 q 378 375 392 361 l 408 344 q 412 339 418 332 l 522 212 l 608 105 q 623 87 628 81 l 636 72 q 644 61 647 59 q 652 56 667 52 q 676 50 709 35 q 710 26 710 21 q 710 15 708 3 l 654 4 q 645 5 625 6 l 577 9 l 566 8 l 499 9 q 489 9 445 5 q 421 3 414 3 q 410 3 402 4 q 399 12 399 17 q 399 22 401 34 q 423 42 445 46 q 461 49 467 55 q 472 60 472 66 q 472 71 471 74 q 466 85 456 99 q 452 103 386 178 l 262 317 q 260 299 260 277 q 260 247 262 225 q 263 221 264 161 l 263 117 l 265 68 q 278 56 313 47 q 334 42 351 31 q 352 21 352 17 q 352 13 351 4 q 328 3 315 3 q 302 3 292 4 l 223 7 q 209 8 195 8 q 181 8 160 7 l 73 7 q 68 7 27 6 z"},"R":{"x_min":0,"x_max":698,"ha":698,"o":"m 41 33 q 54 40 79 43 q 104 46 124 54 q 126 63 126 68 q 127 75 127 115 l 127 224 l 129 282 l 128 328 l 129 354 q 130 407 130 454 q 130 555 128 583 l 99 589 q 60 592 46 594 l 45 624 l 47 629 q 72 633 92 633 q 104 633 138 633 q 173 630 176 630 l 202 632 l 263 635 q 320 641 383 641 q 483 641 542 590 q 602 539 602 473 q 602 423 570 383 q 538 343 471 322 q 477 312 487 298 q 507 269 520 249 l 598 122 q 627 72 636 63 q 646 55 674 44 q 696 36 708 28 q 710 20 710 13 q 710 9 710 2 l 697 2 l 687 1 l 662 5 l 642 5 q 626 7 603 7 l 554 8 q 549 8 520 4 q 507 3 499 2 l 482 34 q 462 71 454 89 q 432 136 380 240 q 355 288 346 294 q 331 304 295 304 q 286 304 262 303 q 261 289 261 270 l 263 161 l 260 69 q 274 61 296 57 q 334 49 361 38 q 361 14 359 2 q 350 2 348 2 l 328 1 q 223 11 203 11 q 190 11 185 10 l 118 6 q 87 2 62 2 l 41 2 q 40 15 40 18 q 40 23 41 33 z m 261 349 q 284 348 295 348 q 378 348 413 378 q 447 408 447 458 q 447 488 439 515 q 430 542 417 556 q 399 575 370 584 q 349 592 301 592 q 279 592 263 589 l 262 580 l 263 514 l 262 474 l 262 421 q 261 398 261 363 z"},"T":{"x_min":0,"x_max":688,"ha":688,"o":"m 52 663 l 83 663 q 86 657 87 655 q 101 631 108 624 q 115 622 175 622 q 213 622 242 623 l 252 624 l 311 625 l 421 624 l 572 624 l 601 628 q 607 632 615 651 q 617 656 620 664 l 642 664 q 646 664 656 664 q 657 630 657 562 l 657 519 l 657 494 q 657 481 655 472 q 635 465 620 464 q 607 483 592 519 q 577 555 573 559 q 567 565 560 567 q 548 570 456 570 q 442 570 422 568 q 419 549 419 537 l 419 471 l 419 328 l 421 173 l 421 109 q 421 76 427 59 q 435 55 456 52 q 459 52 492 44 q 506 41 518 37 q 520 19 520 15 q 520 11 519 2 q 508 2 501 2 q 451 2 416 6 q 380 9 288 9 q 273 9 202 3 q 174 1 166 1 q 166 9 165 13 l 165 24 l 165 28 q 175 42 205 49 q 256 61 275 71 q 280 80 281 95 q 285 154 285 282 l 282 466 q 282 542 279 559 q 278 563 276 565 q 273 567 269 568 q 254 570 170 570 q 125 570 109 561 q 88 549 46 495 q 34 479 28 479 q 5 491 -1 498 q 14 530 41 625 q 49 653 52 663 z"},"P":{"x_min":0,"x_max":615,"ha":615,"o":"m 24 603 l 23 640 l 140 632 l 192 633 l 211 633 q 241 633 305 636 q 341 639 350 639 q 412 639 443 632 q 491 622 519 601 q 547 579 567 539 q 587 500 587 465 q 587 380 534 327 q 480 274 399 274 q 371 274 345 281 q 319 288 297 302 q 294 316 294 341 q 306 340 316 339 q 325 339 333 339 q 374 339 402 362 q 440 392 440 458 q 440 506 424 537 q 407 567 385 578 q 354 593 314 593 q 278 593 262 582 q 258 576 256 570 l 260 340 l 259 320 l 260 300 q 261 293 261 280 l 261 240 l 261 176 l 260 100 q 260 83 263 56 l 360 44 q 362 32 362 25 q 362 18 360 5 q 348 3 341 3 q 326 3 284 7 q 242 10 188 10 q 128 10 73 2 q 64 1 44 0 q 42 14 42 21 q 42 25 43 35 l 73 44 q 104 54 126 67 q 130 81 130 93 q 130 98 130 104 q 129 119 129 146 l 128 284 l 123 438 q 119 549 117 558 q 114 572 105 580 q 97 588 78 591 q 37 598 24 603 z"},"|":{"x_min":0,"x_max":542,"ha":542,"o":"m 232 645 l 310 645 l 310 -249 l 232 -249 z"},"t":{"x_min":0,"x_max":312,"ha":312,"o":"m 29 373 q 86 397 112 421 q 138 444 167 497 l 194 497 q 199 484 199 470 q 199 445 198 431 l 197 402 q 197 399 197 391 l 208 390 q 211 390 254 392 q 258 392 291 393 q 294 380 294 370 q 294 358 291 343 q 274 341 266 341 q 262 341 250 342 l 225 342 l 216 343 l 193 342 l 192 155 q 191 101 194 88 q 197 74 206 62 q 217 57 230 57 q 244 57 250 59 q 256 62 271 73 q 274 76 281 80 q 292 71 300 62 l 302 56 q 285 29 254 13 q 223 -2 188 -2 q 142 -2 114 27 q 85 56 85 116 l 87 202 l 87 341 l 72 342 l 37 341 l 31 343 q 28 347 28 351 q 28 354 29 373 z"},"M":{"x_min":0,"x_max":917,"ha":917,"o":"m 20 3 l 21 37 q 83 44 99 62 q 110 73 116 123 l 122 296 l 129 473 q 130 489 130 493 q 130 562 122 572 q 114 583 60 593 q 46 596 38 598 q 37 610 37 619 l 37 634 q 55 635 80 635 l 223 630 q 228 630 236 629 l 259 628 q 267 619 275 603 q 293 567 323 498 l 329 485 l 405 319 q 407 313 413 302 q 420 285 428 269 q 436 253 444 234 q 453 215 460 200 q 467 212 474 226 q 493 271 512 309 q 544 375 599 512 q 608 534 628 578 q 648 622 650 625 q 655 628 668 628 q 673 628 683 629 q 708 630 744 631 q 795 632 826 635 q 857 637 861 637 q 866 637 873 636 q 874 629 874 625 l 873 611 q 873 606 872 598 q 826 591 797 577 q 777 567 777 553 l 777 545 l 786 396 q 787 375 793 192 q 795 151 800 88 q 801 81 801 76 q 801 64 806 61 q 811 58 894 33 q 894 25 894 21 q 894 11 894 0 q 880 0 827 6 q 774 12 728 12 q 657 12 590 6 q 581 5 573 4 l 574 38 q 594 46 627 51 q 650 55 657 64 q 663 74 663 116 q 663 132 663 145 q 660 196 660 287 l 651 459 q 650 496 648 510 l 526 231 q 522 221 513 203 q 502 179 498 170 q 460 80 446 32 q 442 20 434 0 l 396 0 l 370 75 q 358 104 330 164 q 313 199 304 220 q 300 229 298 233 l 292 246 q 292 249 291 250 l 218 407 l 173 502 l 169 271 l 166 122 q 166 84 180 69 q 194 53 240 42 l 263 36 l 263 0 q 235 0 202 4 q 170 8 116 8 q 105 8 20 3 z"},"g":{"x_min":0,"x_max":542,"ha":542,"o":"m 141 -62 q 75 -46 53 -24 q 31 -1 31 26 q 31 48 43 60 q 55 71 150 125 q 102 154 83 181 q 60 216 60 250 q 60 281 73 316 q 100 366 148 390 q 195 415 271 415 q 301 415 323 411 q 333 409 357 400 l 375 394 q 400 378 419 361 q 461 370 487 378 q 505 384 518 384 q 528 384 534 375 q 540 367 540 336 q 540 310 532 299 q 525 289 517 289 q 514 289 500 295 q 467 311 447 312 q 458 278 458 248 q 458 212 438 179 q 417 147 381 128 q 331 101 280 101 q 248 101 236 103 q 219 104 188 111 q 147 88 130 72 q 122 64 122 54 q 122 44 131 36 q 139 28 159 25 q 163 25 170 23 q 196 21 239 21 q 244 21 273 23 q 282 23 288 23 q 404 23 451 -14 q 498 -51 498 -104 q 498 -133 481 -161 q 465 -188 437 -206 q 409 -223 357 -237 q 304 -250 244 -250 q 179 -250 128 -238 q 76 -225 47 -196 q 24 -175 24 -150 q 24 -126 43 -108 q 62 -89 141 -62 z m 263 134 q 296 134 319 162 q 342 190 342 249 q 342 327 322 354 q 301 381 263 381 q 258 381 237 378 q 214 374 195 345 q 175 316 175 268 q 175 255 179 216 q 180 199 186 187 q 194 168 204 157 q 214 147 230 140 q 247 134 263 134 z m 291 -217 q 363 -209 403 -178 q 429 -158 429 -139 q 429 -128 423 -118 q 418 -107 404 -97 q 390 -87 373 -83 q 348 -79 307 -79 l 247 -78 q 167 -78 140 -97 q 113 -117 113 -149 q 113 -166 128 -183 q 144 -200 179 -209 q 215 -219 256 -219 q 268 -219 291 -217 z"},"j":{"x_min":0,"x_max":260,"ha":260,"o":"m 74 583 q 74 611 93 628 q 111 646 141 646 q 163 646 181 630 q 200 615 200 584 q 200 557 182 539 q 164 521 137 521 q 108 521 91 538 q 74 555 74 583 z m 22 347 l 21 374 q 71 380 91 388 q 110 397 168 441 l 180 440 l 186 440 q 188 440 192 440 l 192 431 l 193 398 l 193 371 q 193 319 194 292 l 195 278 l 194 250 q 194 195 196 177 q 197 160 197 145 l 196 -35 q 196 -71 180 -105 q 164 -139 126 -175 q 88 -211 55 -229 l 29 -206 q 33 -200 44 -185 q 79 -141 87 -117 q 94 -92 94 -5 l 92 76 l 91 110 l 91 144 l 89 326 q 86 332 82 333 q 63 340 22 347 z"},"i":{"x_min":0,"x_max":281,"ha":281,"o":"m 84 585 q 84 612 101 629 q 118 646 145 646 q 174 646 193 628 q 212 610 212 587 q 212 571 204 554 q 197 538 180 528 q 164 518 147 518 q 124 518 104 538 q 84 558 84 585 z m 16 3 l 15 35 l 70 42 q 82 45 87 52 q 91 59 91 82 l 91 87 q 91 93 92 108 q 93 124 93 135 q 93 145 91 171 l 92 195 l 91 218 l 92 298 q 92 313 89 329 q 84 336 70 342 q 56 347 21 350 l 21 377 q 71 380 109 398 q 135 410 165 439 l 198 439 q 200 379 200 282 l 196 83 q 196 62 198 46 q 213 41 248 35 q 261 33 269 30 l 268 3 q 255 3 249 3 q 241 3 226 4 q 176 6 93 6 q 69 6 46 5 q 24 3 16 3 z"},"y":{"x_min":0,"x_max":469,"ha":469,"o":"m -7 396 q 10 399 21 399 q 27 399 34 399 q 79 396 106 396 l 132 396 l 201 400 q 205 397 208 394 q 207 372 206 366 q 198 365 194 364 q 183 363 178 362 q 172 360 166 359 q 159 357 158 353 q 161 341 164 333 l 187 285 q 215 217 244 159 l 271 103 q 274 109 309 199 q 351 306 354 320 q 356 327 356 333 q 356 337 353 349 q 342 356 335 359 q 329 361 304 364 l 288 368 l 287 375 q 286 379 286 382 q 286 386 288 395 q 302 396 309 396 l 348 393 l 375 392 q 391 392 432 397 q 458 400 470 400 q 471 388 471 382 q 471 379 471 373 q 462 369 451 366 q 434 362 420 358 q 413 352 411 348 q 402 330 377 267 l 342 173 l 260 -21 l 204 -150 q 186 -188 161 -214 q 151 -225 139 -230 q 119 -238 94 -238 q 91 -238 67 -234 q 47 -229 32 -213 q 22 -202 22 -188 q 22 -162 45 -139 q 65 -126 75 -126 q 97 -126 126 -149 q 140 -160 148 -160 q 157 -160 162 -151 q 204 -68 216 -34 l 126 165 q 75 285 48 333 q 35 357 29 361 q 23 366 12 369 q 5 371 -3 375 q -5 386 -7 396 z"},"@":{"x_min":0,"x_max":927,"ha":927,"o":"m 576 452 l 695 457 l 605 150 q 590 99 590 73 q 590 58 602 47 q 614 35 629 35 q 664 35 717 74 q 771 113 805 185 q 840 257 840 338 q 840 473 754 560 q 667 646 528 646 q 408 646 310 590 q 211 534 154 426 q 96 319 96 196 q 96 27 204 -81 q 312 -188 478 -188 q 615 -188 724 -115 q 833 -41 878 81 l 908 81 q 850 -63 738 -139 q 625 -216 477 -216 q 289 -216 167 -94 q 45 27 45 213 q 45 341 106 450 q 167 559 276 618 q 385 677 518 677 q 625 677 706 634 q 787 591 828 513 q 868 435 868 348 q 868 247 824 163 q 781 80 716 40 q 650 0 575 0 q 527 0 501 24 q 476 48 476 84 q 476 112 488 154 q 447 87 425 62 q 395 27 364 11 q 344 0 319 0 q 285 0 261 28 q 237 55 237 108 q 237 187 269 259 q 300 332 343 380 q 387 428 438 457 q 462 470 490 470 q 517 470 535 453 q 553 436 559 394 z m 501 435 q 491 435 477 425 q 462 414 436 369 q 411 324 387 252 q 363 180 363 134 q 363 113 373 101 q 382 89 392 89 q 406 89 430 112 q 472 152 504 229 q 537 307 537 372 q 537 404 524 422 q 515 435 501 435 z"},".":{"x_min":0,"x_max":260,"ha":260,"o":"m 129 132 q 160 132 181 113 q 203 93 203 68 q 203 36 189 20 q 166 -8 133 -8 q 102 -8 82 12 q 62 32 62 62 q 62 83 71 99 q 79 111 101 126 q 109 132 129 132 z"},"p":{"x_min":0,"x_max":552,"ha":552,"o":"m -1 -245 l -1 -223 q 7 -218 11 -216 l 49 -202 q 72 -193 75 -188 q 83 -173 82 -136 l 79 59 l 74 300 q 72 327 62 338 q 53 349 11 361 l 10 387 q 58 396 91 410 q 115 419 156 447 l 181 447 l 181 434 l 181 381 q 181 378 181 366 q 224 392 251 400 q 291 412 339 412 q 389 412 428 387 q 431 385 436 381 q 460 364 472 348 q 496 313 507 279 q 515 254 515 216 q 515 165 502 130 q 489 95 457 59 q 424 23 387 8 q 351 -7 310 -7 q 270 -7 253 -2 q 220 7 188 25 q 187 18 187 15 l 188 1 q 188 -4 188 -12 q 188 -15 188 -50 l 189 -139 q 189 -142 188 -159 l 188 -164 q 188 -182 191 -190 q 193 -195 199 -201 q 204 -203 208 -206 q 224 -208 235 -211 q 247 -214 259 -216 q 264 -222 264 -230 q 264 -236 263 -246 l 254 -246 q 226 -246 215 -245 l 141 -239 l 123 -239 l 106 -238 l 89 -240 l 62 -241 q 48 -242 30 -244 q 13 -246 5 -246 z m 184 104 q 186 98 186 95 q 191 73 200 63 q 215 46 234 40 q 264 32 286 32 q 311 32 335 42 q 359 53 374 71 q 376 74 380 78 q 383 86 385 90 q 405 128 405 171 q 405 250 358 304 q 325 343 265 343 q 229 343 184 324 q 183 305 183 217 l 184 123 q 184 120 184 104 z"},"X":{"x_min":0,"x_max":688,"ha":688,"o":"m 6 635 q 23 636 34 636 q 46 636 53 635 l 80 633 l 92 634 q 94 634 109 631 q 137 627 188 627 q 251 627 308 635 q 316 634 325 633 q 324 617 324 601 q 317 598 314 597 l 266 588 q 260 587 250 583 q 250 574 251 570 q 287 509 318 469 l 366 401 l 371 393 l 399 427 l 459 516 q 481 548 487 564 q 489 569 489 574 l 488 582 q 478 587 472 588 q 469 589 454 589 q 428 590 408 593 q 407 603 407 608 q 407 610 408 620 q 408 623 408 631 q 414 631 418 633 q 462 630 600 630 q 617 630 631 632 q 645 633 647 633 q 652 633 662 632 q 665 622 665 614 q 665 609 664 599 l 589 583 q 580 579 568 569 q 557 559 508 496 l 437 404 q 425 387 417 377 q 409 367 402 359 l 410 349 q 437 311 464 271 l 562 128 q 600 71 619 58 q 632 48 686 38 q 687 28 687 25 q 687 23 685 7 l 686 3 l 651 2 q 640 2 607 4 l 547 8 l 541 9 q 531 10 527 10 q 496 10 454 6 q 412 3 393 3 q 380 3 351 4 l 351 17 q 351 25 352 35 q 390 44 431 51 q 436 54 443 58 l 443 63 q 443 67 442 72 q 439 81 428 99 q 407 133 370 181 l 312 259 q 301 246 233 150 q 212 126 197 98 q 188 80 188 75 l 188 71 l 194 62 q 212 54 239 45 q 266 37 274 34 l 277 11 l 277 9 l 276 3 q 262 1 257 1 q 249 1 210 5 q 197 7 163 7 l 140 8 l 32 3 q 28 3 9 3 l 7 25 q 7 30 8 38 q 17 39 29 41 q 67 44 88 54 q 96 59 119 84 q 153 122 181 159 q 197 180 207 191 q 232 227 284 293 l 255 336 q 224 375 207 400 l 178 442 q 162 470 156 477 q 133 507 101 558 q 88 576 69 585 q 50 594 7 596 l 7 604 q 7 609 7 611 q 5 621 5 624 z"},"*":{"x_min":0,"x_max":490,"ha":490,"o":"m 32 364 q 35 366 162 417 l 192 430 q 174 439 157 445 l 33 500 q 48 529 81 581 q 88 576 121 550 q 154 524 161 518 q 174 506 187 499 q 206 486 218 476 q 217 489 215 500 q 211 521 209 554 q 208 567 199 649 q 224 650 238 650 l 296 649 l 270 478 q 315 512 338 527 q 353 538 395 567 q 404 576 410 580 q 428 550 457 498 q 443 492 409 478 q 375 464 303 431 q 313 427 320 422 q 332 416 356 408 l 406 387 q 441 372 458 361 q 453 353 442 332 q 424 295 413 280 q 401 288 369 313 q 336 338 270 382 l 288 249 q 291 228 292 213 l 273 213 q 217 213 197 214 l 218 383 q 199 371 189 362 q 179 354 154 336 q 139 326 80 281 q 52 335 32 364 z"},"Y":{"x_min":0,"x_max":656,"ha":656,"o":"m -17 632 q -4 636 44 636 l 49 635 q 61 633 66 633 l 71 633 q 78 632 111 630 q 171 625 207 625 q 246 625 284 631 q 289 632 292 632 l 295 631 q 298 625 298 622 l 297 596 q 286 592 271 589 l 249 585 q 236 583 216 580 l 213 578 l 212 572 q 228 537 280 464 q 294 440 308 420 q 312 415 335 375 q 338 370 341 366 q 345 359 350 353 q 358 340 360 336 q 370 321 377 312 l 428 384 q 453 416 493 478 l 495 480 l 536 554 q 546 568 546 575 q 546 577 544 583 q 537 588 532 589 q 530 590 512 591 q 501 593 492 594 q 483 596 477 597 q 476 604 474 633 l 574 628 q 579 627 586 626 l 610 626 l 618 626 q 634 629 659 630 q 666 631 673 632 l 672 595 l 666 593 q 625 586 610 575 q 588 559 551 495 l 487 400 q 430 322 414 294 q 409 287 406 277 l 406 262 l 406 219 l 406 208 q 404 195 404 181 l 406 56 q 408 52 412 51 q 418 49 443 46 q 490 41 495 38 q 499 35 499 28 q 499 23 498 16 q 498 12 498 2 l 441 3 l 389 8 l 353 10 l 299 8 l 258 8 q 251 9 236 6 q 212 2 200 2 l 166 3 q 166 13 166 19 q 166 24 166 35 l 256 53 q 262 55 267 58 q 268 81 268 86 q 268 161 267 188 q 266 215 266 219 l 266 230 q 266 261 233 301 q 220 318 216 324 l 121 469 l 76 542 q 73 545 45 582 q 37 589 28 592 q 23 594 -16 603 q -19 607 -19 610 q -19 613 -18 618 q -18 623 -17 632 z"},"c":{"x_min":0,"x_max":469,"ha":469,"o":"m 418 130 q 426 126 430 125 q 441 120 448 112 q 435 63 384 28 q 333 -8 255 -8 q 207 -8 159 13 q 111 33 83 67 q 61 93 50 130 q 39 168 39 194 q 39 226 52 266 q 66 307 98 342 q 130 378 179 399 q 229 420 290 420 q 375 420 408 394 q 441 367 441 341 q 441 315 427 300 q 414 285 391 285 q 371 285 354 298 q 337 312 326 343 q 317 365 303 375 q 290 385 271 385 q 225 385 188 346 q 152 307 152 239 q 152 157 197 109 q 241 61 297 61 q 325 61 344 67 q 356 72 377 86 q 383 90 398 107 q 413 125 418 130 z"},"!":{"x_min":0,"x_max":260,"ha":260,"o":"m 149 189 q 139 188 112 188 l 84 369 q 69 476 64 524 q 62 554 62 569 q 62 572 64 586 q 66 616 79 630 q 92 644 115 646 q 128 649 132 649 q 159 649 177 630 q 196 610 196 574 q 196 540 188 460 l 167 303 q 159 234 149 189 z m 62 62 q 62 89 81 107 q 106 131 133 131 q 162 131 182 111 q 203 90 203 61 q 203 31 183 11 q 164 -9 134 -9 q 103 -9 82 12 q 62 33 62 62 z"},"/":{"x_min":0,"x_max":552,"ha":552,"o":"m 414 696 l 495 696 l 138 -135 l 57 -135 z"},"[":{"x_min":0,"x_max":365,"ha":365,"o":"m 123 630 q 150 632 323 632 l 340 632 l 340 601 q 338 596 335 595 q 248 575 238 567 q 231 562 231 541 l 231 536 q 233 500 233 386 l 235 307 q 235 295 232 215 l 233 104 l 233 68 l 234 -4 l 233 -48 l 233 -109 l 232 -124 q 232 -129 233 -146 q 234 -153 234 -165 q 249 -171 301 -181 q 327 -186 337 -188 q 339 -205 339 -211 q 339 -218 337 -226 l 125 -225 q 124 -208 124 -205 l 124 -156 l 124 -73 l 125 -20 l 124 32 l 124 57 l 124 419 l 124 467 q 124 487 124 500 q 123 520 123 522 l 125 563 q 125 565 123 593 q 123 606 123 630 z"},"6":{"x_min":0,"x_max":469,"ha":469,"o":"m 196 323 q 196 334 196 339 q 196 345 196 356 q 200 357 214 363 q 248 378 282 378 q 349 378 394 329 q 440 279 440 193 q 440 100 385 44 q 329 -11 231 -11 q 188 -11 153 7 q 119 25 93 58 q 66 91 52 127 q 30 186 30 253 q 30 312 50 377 q 70 442 111 492 q 151 542 203 574 q 255 606 294 621 q 371 649 410 649 q 417 649 421 644 q 425 639 425 629 q 425 618 423 612 q 413 607 385 601 q 323 585 277 549 q 230 513 208 475 q 177 421 166 355 q 154 289 154 224 q 154 151 163 104 q 173 58 196 38 q 211 25 240 25 q 257 25 266 30 q 287 41 296 53 q 313 77 319 109 q 325 142 325 177 q 325 265 300 298 q 275 332 239 332 q 223 332 196 323 z"},"r":{"x_min":0,"x_max":344,"ha":344,"o":"m 19 27 q 25 32 36 35 q 61 40 83 54 q 87 66 87 133 q 87 257 82 300 q 81 308 74 314 q 62 320 41 325 q 31 328 29 336 l 28 354 q 64 359 93 379 q 123 398 137 419 q 145 430 151 436 l 185 438 q 188 426 188 419 q 188 414 187 406 q 187 389 187 377 q 187 372 187 337 q 207 371 216 383 q 221 388 242 407 q 259 419 280 419 q 306 419 325 401 q 344 384 344 361 q 344 338 329 320 q 315 301 291 301 q 270 301 247 319 q 233 330 225 330 l 222 329 q 211 326 203 311 q 189 286 189 260 l 190 247 q 192 210 193 77 q 195 65 203 53 q 211 46 220 43 q 229 40 252 38 q 274 36 279 32 q 284 28 284 19 q 284 13 281 4 l 235 4 l 142 9 q 107 9 78 6 l 70 6 q 66 6 19 4 q 18 12 18 16 q 18 20 19 27 z"},"2":{"x_min":0,"x_max":469,"ha":469,"o":"m 426 2 l 375 2 q 357 2 347 2 q 331 3 327 3 l 294 1 l 285 2 q 273 4 256 4 q 240 4 201 2 q 183 2 179 2 l 129 3 l 50 2 l 19 2 l 19 35 q 88 123 123 158 q 158 193 223 274 q 268 330 284 374 q 301 417 301 450 q 301 486 291 515 q 280 543 254 560 q 227 577 196 577 q 164 577 139 561 q 113 545 102 521 q 83 487 80 449 l 44 449 q 42 470 42 484 q 42 532 79 575 q 136 643 239 643 q 325 643 374 594 q 423 545 423 472 q 423 442 414 417 q 401 381 382 355 q 363 330 279 245 q 218 184 126 101 l 180 100 l 269 102 l 321 101 q 362 101 375 109 q 389 118 400 151 q 402 159 409 174 l 441 176 l 447 174 q 450 170 450 167 q 450 159 447 147 q 445 136 442 109 q 438 82 426 2 z"},"{":{"x_min":0,"x_max":396,"ha":396,"o":"m 352 677 l 352 655 q 303 646 280 621 q 256 596 256 563 q 256 531 268 482 q 280 434 280 397 q 280 364 260 330 q 240 295 203 271 q 177 254 121 239 q 181 220 208 201 q 245 176 263 143 q 281 109 281 79 q 281 49 269 0 q 257 -48 257 -84 q 257 -119 279 -144 q 301 -169 352 -179 l 352 -202 l 334 -202 q 248 -202 191 -143 q 150 -100 150 -47 q 150 -14 165 45 q 176 88 176 123 q 176 161 152 188 q 127 215 81 223 l 81 253 q 127 261 152 289 q 176 317 176 358 q 176 391 166 433 q 150 491 150 521 q 150 553 169 585 q 188 618 217 639 q 246 659 280 668 q 307 676 352 677 z"},"9":{"x_min":0,"x_max":469,"ha":469,"o":"m 88 -14 q 81 -4 81 4 q 81 13 85 18 q 88 21 114 31 q 165 50 201 78 q 238 105 263 145 q 288 184 298 230 q 309 275 310 302 q 310 311 314 344 q 317 369 317 404 q 317 529 287 575 q 264 610 230 610 q 199 610 177 580 q 147 540 147 464 q 147 418 153 377 q 157 351 170 328 q 179 313 187 309 q 206 300 225 300 q 237 300 250 304 l 258 305 q 264 305 269 300 q 273 294 273 283 q 273 265 259 259 q 228 248 191 248 q 168 248 162 250 q 116 266 105 274 q 77 295 62 316 q 47 337 40 365 q 30 401 30 438 q 30 496 56 545 q 83 595 128 620 q 174 645 226 645 q 319 645 381 574 q 442 503 442 369 q 442 303 417 229 q 411 210 381 159 q 352 108 302 66 q 252 24 197 5 q 142 -15 107 -15 q 101 -15 88 -14 z"}," ":{"x_min":0,"x_max":250,"ha":250,"o":""},"I":{"x_min":0,"x_max":396,"ha":396,"o":"m 40 3 l 40 38 q 50 41 72 46 q 104 54 120 62 q 128 78 128 104 l 128 162 l 129 273 l 128 300 q 132 396 132 399 l 131 464 l 132 491 l 130 546 l 129 567 q 129 572 126 583 q 106 592 61 595 q 50 595 44 596 l 42 639 l 182 633 q 208 632 214 632 q 243 632 307 636 q 342 639 352 639 q 352 630 352 624 q 352 615 351 602 q 332 595 306 589 q 281 583 265 577 q 262 564 262 540 q 262 519 264 506 q 262 423 262 379 l 263 250 l 261 185 l 262 87 l 262 68 q 262 64 264 57 q 293 51 318 48 q 322 48 348 44 q 350 30 350 20 q 350 15 349 3 q 343 3 339 3 q 324 2 321 2 q 318 2 309 3 q 302 4 244 10 l 157 11 q 131 11 82 6 q 50 3 40 3 z"},"H":{"x_min":0,"x_max":865,"ha":865,"o":"m 31 5 q 31 20 34 40 l 95 50 q 106 53 122 58 l 128 180 q 126 246 126 279 l 127 291 q 128 311 128 391 l 127 405 l 128 446 l 128 489 l 128 510 q 128 538 124 576 q 123 580 120 588 q 116 589 111 590 q 106 590 102 591 q 83 595 61 596 l 54 598 q 41 600 34 602 q 32 616 32 620 q 32 626 35 636 q 45 638 62 638 q 80 638 87 639 q 146 632 175 632 q 188 632 202 631 q 215 630 226 630 q 242 630 304 635 q 314 638 327 638 q 345 638 357 636 q 357 625 357 621 q 357 613 355 602 l 270 588 q 259 583 259 574 l 260 556 l 261 548 l 260 527 l 259 510 l 259 506 q 260 501 260 497 l 259 435 q 260 426 260 422 q 260 419 259 406 q 258 398 258 390 q 258 383 260 355 q 273 353 283 353 l 355 351 l 390 351 l 478 351 l 563 353 q 580 353 599 356 q 600 373 600 438 l 601 460 l 598 543 l 595 577 q 593 581 588 583 q 571 593 520 605 q 510 607 502 610 q 503 627 506 638 q 517 639 519 639 l 566 638 q 612 632 659 632 q 669 632 676 633 l 739 635 q 748 635 756 636 q 774 640 792 640 q 807 640 827 638 q 826 619 824 604 q 779 594 765 590 q 751 586 737 579 l 734 569 l 734 561 l 735 548 l 734 542 q 733 531 733 526 l 733 514 q 734 492 734 489 l 734 427 l 734 380 l 733 318 q 733 297 735 230 l 735 161 l 736 104 q 736 87 735 64 q 745 62 754 60 q 800 50 823 40 l 825 5 q 805 5 802 5 q 778 5 748 8 q 708 12 619 12 q 579 12 516 6 q 509 6 499 9 q 500 31 501 41 l 539 49 l 579 56 q 584 57 594 60 q 599 100 600 191 l 600 233 q 597 259 597 295 q 579 296 558 297 l 332 299 l 327 300 l 324 300 q 320 300 316 300 q 303 299 294 299 l 281 299 q 271 299 260 296 l 258 259 l 258 253 q 259 240 259 236 l 259 84 q 259 72 260 59 l 265 56 l 337 44 q 342 42 345 42 q 352 41 356 38 q 357 26 357 22 q 357 16 355 5 q 338 4 326 4 q 315 4 306 5 q 301 5 297 5 l 229 8 q 204 11 160 11 l 150 10 q 129 9 126 9 q 96 5 31 5 z"},"4":{"x_min":0,"x_max":469,"ha":469,"o":"m 446 236 l 446 154 q 419 153 404 153 q 390 153 368 154 q 367 143 367 140 l 368 111 l 367 80 l 368 58 q 368 52 367 29 q 366 16 365 -11 l 323 -10 l 297 -10 q 287 -10 282 -10 l 273 -9 q 270 -9 263 -11 l 264 84 l 262 145 q 262 147 263 154 q 239 154 193 153 l 161 153 q 119 153 68 155 q 52 155 47 155 q 40 155 25 154 l 24 161 l 25 194 l 24 205 l 26 225 l 25 229 q 48 272 54 282 l 166 454 q 204 509 226 538 q 248 567 257 582 q 271 604 281 616 q 296 635 300 643 q 329 645 336 645 q 346 645 371 643 l 372 637 l 370 601 l 371 588 l 370 568 l 371 548 l 370 500 l 369 479 l 370 452 l 369 426 l 370 392 l 369 358 l 370 320 l 368 236 q 385 236 411 235 l 422 235 q 430 235 446 236 z m 263 237 q 266 262 266 274 q 266 279 265 292 q 264 306 264 310 l 266 348 l 265 380 l 266 465 l 266 503 q 266 508 267 526 q 263 521 253 509 q 246 498 242 492 q 223 469 199 434 l 155 364 q 149 354 141 341 q 128 319 110 292 q 91 264 79 237 q 94 239 99 239 l 123 238 l 169 238 l 235 237 z"},"~":{"x_min":0,"x_max":667,"ha":667,"o":"m 571 396 l 600 396 q 597 319 559 279 q 522 238 468 238 q 442 238 413 247 q 384 255 285 297 q 213 327 182 327 q 148 327 125 306 q 103 285 96 239 l 67 239 q 71 320 107 358 q 144 397 194 397 q 221 397 246 390 q 294 376 374 342 q 454 308 485 308 q 520 308 543 330 q 566 353 571 396 z"},"D":{"x_min":0,"x_max":781,"ha":781,"o":"m 25 43 q 32 45 55 49 q 101 57 115 70 q 124 78 126 102 q 126 107 129 250 l 129 304 l 129 369 l 127 536 l 128 555 q 128 568 121 575 q 118 578 102 578 q 89 578 73 575 q 51 574 34 571 q 31 571 25 570 l 24 613 q 53 622 107 631 q 196 646 326 646 q 434 646 484 633 q 561 614 608 577 q 672 526 704 460 q 736 394 736 316 q 736 217 693 147 q 650 76 570 34 q 513 3 416 3 l 316 8 l 287 9 l 247 8 l 235 9 l 194 8 l 140 9 q 137 9 90 5 q 75 4 49 4 q 34 4 26 3 q 25 14 25 43 z m 262 587 q 260 572 260 565 l 262 482 l 261 410 q 262 375 262 349 l 262 302 l 263 225 l 262 177 q 262 110 287 86 q 323 52 386 52 q 435 52 458 61 q 505 80 533 110 q 562 141 576 198 q 591 254 591 314 q 591 413 559 475 q 528 538 473 569 q 418 601 348 601 q 298 601 262 587 z"},"^":{"x_min":0,"x_max":583,"ha":583,"o":"m 73 325 l 274 676 l 314 676 l 511 325 l 434 325 l 290 575 l 148 325 z"},"0":{"x_min":0,"x_max":469,"ha":469,"o":"m 28 317 q 28 371 34 401 q 49 474 62 506 q 84 557 113 589 q 142 620 180 636 q 203 646 240 646 q 285 646 328 614 q 371 583 405 510 q 438 437 438 326 q 438 245 420 173 q 408 129 386 93 q 365 56 351 42 q 326 18 297 3 q 268 -11 250 -11 q 196 -11 168 0 q 141 10 115 38 q 89 65 69 107 q 49 150 40 189 q 28 245 28 317 z m 154 252 q 154 145 161 107 q 168 69 187 51 q 207 32 228 32 q 250 32 266 43 q 281 55 292 80 q 303 105 308 160 q 315 248 315 286 l 313 351 l 313 419 q 313 468 307 510 q 300 552 288 571 q 277 589 261 596 q 245 603 230 603 q 212 603 191 585 q 170 567 161 520 q 152 473 152 358 l 153 324 q 154 273 154 252 z"},"F":{"x_min":0,"x_max":615,"ha":615,"o":"m 29 0 l 30 35 q 41 38 66 42 q 91 47 116 54 l 125 60 q 130 79 130 100 l 130 103 l 128 215 l 128 263 l 126 333 l 127 416 l 122 579 q 114 586 74 593 q 64 595 46 601 l 34 604 l 34 638 l 99 635 q 157 629 271 629 q 328 629 390 632 l 399 633 l 423 632 l 433 633 l 454 633 l 541 636 q 547 636 556 637 q 566 638 574 638 q 577 624 578 609 l 585 517 q 585 502 583 495 q 565 492 557 492 q 547 492 541 497 q 538 500 530 519 q 509 568 495 577 q 480 586 415 586 l 347 584 q 304 583 279 579 q 274 578 264 574 q 257 563 257 545 l 259 487 l 257 421 q 257 370 261 358 q 265 355 268 355 l 303 354 l 361 354 q 381 354 421 359 q 449 362 456 367 q 467 375 472 386 q 478 398 480 445 q 482 445 493 445 q 500 446 502 446 q 508 446 524 444 l 521 366 q 521 341 519 323 l 520 312 q 521 308 521 240 q 521 236 520 226 q 511 224 505 224 q 501 224 486 227 q 482 236 477 253 q 465 292 452 298 q 429 310 305 310 q 287 310 263 307 q 259 286 259 259 l 262 113 q 262 72 271 63 q 276 57 307 51 l 317 50 q 339 49 355 44 l 369 41 q 371 28 371 21 q 371 14 369 3 l 360 3 l 345 3 l 275 6 q 264 7 166 7 q 139 7 115 4 q 76 0 73 0 q 41 0 29 0 z"},"`":{"x_min":0,"x_max":333,"ha":333,"o":"m 59 625 l 192 625 q 197 612 203 596 q 209 573 215 555 q 238 489 243 468 l 204 470 z"},"k":{"x_min":0,"x_max":531,"ha":531,"o":"m 16 31 q 24 35 33 37 q 42 38 46 39 q 74 42 79 44 q 82 54 83 76 l 86 283 l 86 311 l 86 332 l 86 472 q 86 521 83 543 q 83 549 80 560 q 70 568 61 571 q 51 574 21 578 q 21 584 21 587 q 21 593 22 603 q 41 609 129 633 q 154 640 173 648 l 192 647 l 193 430 q 193 428 192 399 q 191 389 191 358 l 190 285 l 190 215 q 215 230 292 281 q 318 298 351 325 q 364 335 371 342 q 363 346 355 348 q 337 352 311 362 q 311 369 311 373 q 311 377 312 388 l 348 388 q 353 388 373 387 q 394 386 415 386 q 432 386 463 388 q 494 390 501 390 q 509 390 525 389 q 525 383 525 381 q 525 376 523 367 l 485 355 q 453 346 437 336 q 396 313 300 248 q 312 236 324 224 l 337 212 l 373 176 l 453 96 l 499 50 q 509 42 539 29 q 540 15 540 13 q 540 9 539 1 q 534 1 507 3 q 492 5 481 5 q 379 5 308 3 q 308 10 307 14 l 306 21 q 306 25 309 32 q 321 37 341 39 q 350 39 359 41 q 352 54 341 65 l 215 200 l 188 186 l 188 83 q 188 79 189 67 l 189 49 q 199 42 205 41 q 213 38 236 35 q 242 35 248 33 l 248 21 l 248 12 q 248 10 247 4 l 244 3 q 199 4 172 6 q 158 7 150 7 q 146 7 128 7 l 101 7 l 59 3 l 46 3 l 17 2 q 15 10 15 17 q 15 22 16 31 z"},"u":{"x_min":0,"x_max":552,"ha":552,"o":"m 23 398 q 28 400 32 401 l 177 401 l 188 400 l 188 368 l 188 320 l 188 295 l 188 221 l 188 171 q 188 122 193 93 q 200 72 217 61 q 233 50 256 50 q 278 50 292 54 q 306 59 323 71 q 341 83 346 88 q 360 104 366 117 l 369 239 q 370 258 370 270 q 370 283 369 302 q 369 321 369 324 l 369 342 l 368 353 q 356 360 335 362 l 303 364 q 300 366 297 368 q 295 377 295 382 q 295 388 297 399 q 313 401 325 401 l 400 400 q 430 400 474 401 l 475 365 l 474 318 l 475 259 l 474 175 l 473 138 l 474 112 q 472 87 472 83 q 472 71 476 65 q 480 60 484 60 l 529 61 l 535 60 q 537 43 537 41 q 537 37 535 30 q 509 29 498 26 q 446 15 384 -8 l 364 -7 l 364 72 q 358 67 347 57 q 304 19 273 6 q 242 -8 208 -8 q 168 -8 139 9 q 110 25 96 50 q 86 69 83 104 q 82 114 82 200 l 82 216 q 84 264 84 287 q 84 326 83 339 q 83 345 78 354 q 71 356 62 358 q 31 363 23 368 q 21 370 21 375 q 21 377 21 382 q 22 387 23 398 z"},"]":{"x_min":0,"x_max":365,"ha":365,"o":"m 129 572 q 107 582 56 590 q 36 593 26 596 q 25 608 25 617 q 25 624 25 633 q 52 633 72 633 q 210 633 239 632 q 240 615 240 613 l 239 466 l 238 431 q 238 423 240 333 l 240 319 l 238 209 q 238 195 239 158 l 238 -21 l 238 -44 l 237 -77 l 238 -120 l 237 -159 q 237 -162 238 -191 q 239 -198 239 -205 q 239 -213 237 -224 l 21 -224 q 21 -210 21 -199 q 21 -192 23 -189 q 26 -187 41 -184 q 108 -171 122 -161 q 128 -157 128 -148 l 128 -72 l 128 23 l 127 69 l 129 101 l 129 183 l 130 244 q 130 261 129 277 l 129 301 l 129 348 l 128 447 q 128 468 130 504 q 130 524 130 532 q 130 538 129 572 z"},"U":{"x_min":0,"x_max":760,"ha":760,"o":"m 19 594 l 18 633 q 26 633 36 633 q 60 633 87 632 q 151 628 163 628 q 202 628 239 630 q 276 632 305 632 q 334 633 345 633 l 344 627 l 345 599 l 345 595 q 318 591 289 591 q 261 591 252 580 q 247 573 247 522 q 247 506 247 497 l 248 479 l 247 433 l 250 394 l 248 310 l 254 187 q 256 134 277 99 q 293 73 321 58 q 362 38 402 38 q 449 38 489 50 q 513 57 534 72 q 556 87 564 100 q 582 127 588 150 q 598 183 598 250 q 598 369 585 517 l 583 542 q 582 571 572 581 q 557 596 537 596 l 491 595 l 485 597 l 486 634 l 524 634 l 618 630 q 665 630 707 634 l 715 633 q 718 617 718 611 q 718 605 716 598 q 698 592 678 591 q 646 587 642 584 q 635 578 635 566 q 635 557 637 541 q 638 528 638 498 q 638 481 638 471 q 639 461 639 451 q 641 416 642 380 l 646 281 q 646 181 640 147 q 633 114 621 94 q 603 65 570 40 q 537 16 487 1 q 437 -13 371 -13 q 295 -13 241 7 q 187 27 159 60 q 131 93 121 146 q 114 182 114 250 l 114 482 q 114 565 106 576 q 96 591 40 593 q 27 593 19 594 z"},"o":{"x_min":0,"x_max":521,"ha":521,"o":"m 423 359 q 454 329 469 289 q 485 250 485 215 q 485 150 465 110 q 435 49 383 21 q 332 -8 264 -8 q 188 -8 135 26 q 82 60 59 104 q 37 147 37 211 q 37 244 47 277 q 58 310 77 334 q 96 359 118 375 q 151 399 184 409 q 217 419 264 419 q 366 419 423 359 z m 156 190 q 160 129 162 120 q 168 87 182 64 q 191 49 213 37 q 234 25 264 25 q 300 25 324 48 q 349 71 359 119 q 366 151 366 223 q 366 312 337 349 q 308 386 260 386 q 222 386 198 365 q 173 344 163 303 q 157 276 156 190 z"},"N":{"x_min":0,"x_max":844,"ha":844,"o":"m 5 597 l 3 631 l 45 631 l 59 631 q 88 633 100 633 q 105 633 134 632 q 140 631 145 631 q 149 631 175 632 q 202 633 205 633 q 210 633 220 633 q 295 564 343 515 q 390 466 688 170 l 688 182 l 687 239 q 685 289 683 318 q 680 347 680 387 q 679 427 676 460 q 670 524 670 534 q 670 565 664 572 q 653 583 617 588 q 590 593 577 600 l 577 628 l 590 630 l 686 633 l 793 636 q 804 636 814 636 l 814 604 q 803 599 792 596 q 760 588 755 585 q 730 571 729 568 q 724 562 724 550 q 724 547 725 530 q 726 521 726 489 q 726 418 729 377 q 730 364 731 347 l 736 176 q 737 158 737 150 l 737 90 l 738 65 l 737 39 q 739 19 739 15 l 739 -11 l 683 -13 l 625 47 l 506 165 l 423 248 l 362 310 q 302 369 253 413 l 174 485 l 178 303 q 179 287 179 269 l 178 234 l 181 170 q 183 130 187 83 q 188 71 189 66 q 190 61 195 51 q 214 44 278 41 q 282 40 291 37 l 292 -2 l 273 -3 q 258 -3 175 4 q 97 3 71 1 q 45 0 43 0 q 37 0 27 1 q 26 13 26 21 q 26 26 26 39 q 40 41 49 41 q 52 41 68 40 q 109 40 116 46 q 124 52 125 79 q 128 157 128 174 l 128 201 l 129 359 l 128 458 q 127 515 121 537 q 118 548 109 557 q 92 574 71 583 q 59 588 5 597 z"},"+":{"x_min":0,"x_max":667,"ha":667,"o":"m 65 355 l 294 355 l 294 585 l 371 585 l 371 355 l 601 355 l 601 278 l 371 278 l 371 51 l 294 51 l 294 278 l 65 278 z"},"G":{"x_min":0,"x_max":729,"ha":729,"o":"m 632 594 q 635 580 640 538 q 644 497 644 478 q 644 470 641 459 q 620 460 605 463 q 568 521 553 535 q 524 562 480 582 q 447 596 405 596 q 323 596 261 522 q 199 449 199 305 q 199 237 223 173 q 248 109 296 73 q 344 36 410 36 q 441 36 477 44 q 495 48 506 60 q 514 68 517 83 q 521 112 521 164 q 521 215 519 234 q 516 241 512 243 q 509 246 493 250 l 449 262 q 435 266 432 271 q 431 277 431 280 q 431 287 434 299 q 443 302 446 302 q 500 302 539 298 q 552 297 568 297 l 646 298 l 678 299 q 684 299 711 298 q 711 285 711 276 q 711 271 708 264 q 700 259 680 252 q 660 245 657 242 q 653 238 652 230 q 650 222 650 172 q 650 114 650 103 q 648 67 648 62 q 648 44 643 40 q 629 26 558 9 q 487 -9 393 -9 q 327 -9 279 2 q 230 12 196 33 q 150 60 117 99 q 84 138 68 184 q 46 248 46 312 q 46 384 79 458 q 104 511 148 553 q 192 596 258 622 q 325 647 403 647 q 413 647 435 645 q 494 645 546 630 q 598 615 632 594 z"},"q":{"x_min":0,"x_max":552,"ha":552,"o":"m 429 361 q 433 375 436 443 l 478 444 l 477 435 l 478 393 l 478 364 l 479 307 l 479 252 l 478 218 l 478 170 q 477 145 477 130 q 477 115 477 99 q 478 78 478 57 l 478 41 l 476 -84 l 475 -176 q 475 -188 485 -197 q 492 -203 520 -210 q 538 -216 544 -220 q 545 -226 545 -231 q 545 -236 544 -249 q 516 -248 486 -246 q 435 -242 399 -242 q 354 -242 310 -247 q 300 -249 296 -249 q 292 -249 286 -248 l 288 -219 q 295 -218 308 -215 q 320 -212 330 -211 q 358 -206 365 -196 q 372 -186 372 -135 l 371 -76 l 373 -7 q 373 9 372 43 q 365 39 356 33 q 300 -6 234 -6 q 199 -6 177 1 q 141 13 108 40 q 76 67 57 110 q 39 152 39 199 q 39 236 53 271 q 67 306 92 334 q 117 362 152 380 q 177 394 225 407 q 246 413 280 413 q 311 413 354 398 q 383 389 429 361 z m 285 54 q 296 55 302 55 q 308 55 315 54 q 343 56 372 75 l 372 84 q 372 103 372 116 l 372 151 q 372 270 365 303 q 358 336 334 354 q 311 372 273 372 q 258 372 229 362 q 210 356 190 335 q 175 321 165 290 q 155 259 155 215 q 155 149 191 106 q 227 63 285 54 z"},"d":{"x_min":0,"x_max":552,"ha":552,"o":"m 129 377 q 153 394 175 401 q 197 409 238 413 l 265 413 q 318 413 367 376 l 368 388 l 368 420 l 370 473 q 370 555 357 577 q 350 590 331 591 q 313 592 302 598 l 302 621 q 311 624 326 624 q 340 625 383 634 l 399 638 l 448 649 q 462 652 466 652 q 468 652 474 651 q 477 641 477 636 l 476 629 l 476 620 q 476 606 478 547 l 478 521 l 478 507 l 478 482 l 479 432 l 478 402 q 477 382 477 340 q 477 333 478 328 l 478 310 q 477 302 477 298 q 477 291 479 277 l 479 250 l 478 240 q 477 226 477 201 q 477 176 478 155 q 479 147 479 140 l 479 104 q 479 86 479 62 q 488 56 522 54 q 533 53 542 51 q 544 44 544 41 q 544 36 541 27 q 521 22 499 20 q 432 12 403 -3 q 390 -11 384 -11 q 379 -11 372 -10 q 373 -1 373 1 q 373 34 371 43 q 364 40 353 33 q 320 14 293 6 q 267 -1 232 -1 q 170 -1 134 22 q 80 56 59 104 q 38 152 38 209 q 38 308 129 377 z m 279 54 q 290 53 297 53 q 313 53 331 60 q 350 67 370 80 q 371 96 371 100 q 371 255 366 287 q 360 329 334 352 q 308 375 270 375 q 249 375 229 367 q 210 359 198 345 q 180 323 170 296 q 158 258 158 225 q 158 145 191 103 q 225 61 279 54 z"},"1":{"x_min":0,"x_max":396,"ha":396,"o":"m 201 644 q 203 644 234 645 l 250 644 l 280 644 q 282 628 282 621 q 282 618 282 605 q 281 599 281 553 l 280 479 l 280 433 l 277 104 l 277 76 q 277 61 284 55 q 291 48 320 44 q 332 42 367 36 q 368 31 368 27 q 368 21 367 3 l 346 3 q 325 3 284 5 q 259 7 250 7 q 238 7 163 4 q 155 4 149 4 l 141 4 l 126 5 l 113 4 l 89 5 q 84 5 69 3 q 68 14 68 20 q 68 25 69 36 q 88 42 114 47 q 150 54 158 61 q 166 68 166 80 l 166 113 l 167 149 l 167 224 l 167 243 q 167 247 167 272 q 168 285 168 295 q 168 302 167 335 l 169 363 q 167 395 167 400 q 167 408 167 415 l 168 427 l 167 460 l 168 476 q 169 486 169 503 q 169 520 168 543 q 134 518 89 492 q 84 489 45 472 q 30 495 25 507 q 77 534 96 546 q 126 568 162 600 q 177 614 201 644 z"},"5":{"x_min":0,"x_max":469,"ha":469,"o":"m 362 641 l 380 642 q 384 642 398 641 q 377 543 368 527 q 362 518 356 517 q 298 514 294 514 l 281 514 l 250 514 q 242 514 227 515 q 186 516 167 516 q 162 516 151 516 q 149 502 149 496 l 146 433 l 145 387 q 166 397 189 402 q 212 407 237 407 q 273 407 308 393 q 343 379 370 353 q 389 333 408 301 q 421 277 422 266 q 428 223 428 220 q 428 183 420 152 q 412 121 385 83 q 357 44 335 30 q 302 7 263 -2 q 225 -11 168 -11 q 103 -11 58 21 q 32 40 32 69 q 32 90 47 105 q 62 120 85 120 q 120 120 155 76 q 176 49 187 43 q 204 34 225 34 q 252 34 279 51 q 306 67 323 102 q 339 136 339 166 q 339 217 304 254 q 270 291 221 291 q 196 291 178 285 q 168 282 143 265 l 122 251 q 116 249 111 249 q 104 249 99 253 q 95 256 95 262 l 101 417 q 101 427 102 435 q 103 443 104 476 q 104 509 105 523 q 107 544 107 558 q 107 567 108 577 q 109 583 109 586 l 108 604 q 108 615 124 620 q 132 623 202 623 l 314 621 q 341 621 349 625 q 356 628 362 641 z"}}}
